{
	"patcher" : 	{
		"fileversion" : 1,
		"appversion" : 		{
			"major" : 5,
			"minor" : 1,
			"revision" : 9
		}
,
		"rect" : [ 261.0, 44.0, 1065.0, 632.0 ],
		"bgcolor" : [ 1.0, 1.0, 1.0, 0.0 ],
		"bglocked" : 1,
		"defrect" : [ 261.0, 44.0, 1065.0, 632.0 ],
		"openrect" : [ 0.0, 0.0, 0.0, 0.0 ],
		"openinpresentation" : 1,
		"default_fontsize" : 12.0,
		"default_fontface" : 0,
		"default_fontname" : "Arial",
		"gridonopen" : 0,
		"gridsize" : [ 5.0, 5.0 ],
		"gridsnaponopen" : 0,
		"toolbarvisible" : 1,
		"boxanimatetime" : 200,
		"imprint" : 0,
		"enablehscroll" : 1,
		"enablevscroll" : 1,
		"devicewidth" : 0.0,
		"boxes" : [ 			{
				"box" : 				{
					"fontname" : "Arial",
					"fontsize" : 12.0,
					"id" : "obj-39",
					"maxclass" : "newobj",
					"numinlets" : 1,
					"numoutlets" : 2,
					"outlettype" : [ "", "" ],
					"patching_rect" : [ 15.0, 105.0, 89.0, 20.0 ],
					"text" : "route /cascade"
				}

			}
, 			{
				"box" : 				{
					"fontname" : "Arial",
					"fontsize" : 12.0,
					"id" : "obj-28",
					"maxclass" : "newobj",
					"numinlets" : 1,
					"numoutlets" : 1,
					"outlettype" : [ "" ],
					"patching_rect" : [ 600.0, 155.0, 82.0, 20.0 ],
					"text" : "loadmess 20."
				}

			}
, 			{
				"box" : 				{
					"fontname" : "Arial",
					"fontsize" : 12.0,
					"id" : "obj-18",
					"maxclass" : "newobj",
					"numinlets" : 1,
					"numoutlets" : 1,
					"outlettype" : [ "" ],
					"patching_rect" : [ 290.0, 155.0, 82.0, 20.0 ],
					"text" : "loadmess 95."
				}

			}
, 			{
				"box" : 				{
					"fontname" : "Arial",
					"fontsize" : 12.0,
					"id" : "obj-33",
					"maxclass" : "comment",
					"numinlets" : 1,
					"numoutlets" : 0,
					"patching_rect" : [ 655.0, 185.0, 84.0, 20.0 ],
					"presentation" : 1,
					"presentation_rect" : [ 85.0, 15.0, 48.0, 20.0 ],
					"text" : "SMTH."
				}

			}
, 			{
				"box" : 				{
					"fontname" : "Arial",
					"fontsize" : 12.0,
					"id" : "obj-34",
					"maxclass" : "flonum",
					"numinlets" : 1,
					"numoutlets" : 2,
					"outlettype" : [ "float", "bang" ],
					"patching_rect" : [ 600.0, 185.0, 50.0, 20.0 ],
					"presentation" : 1,
					"presentation_rect" : [ 50.0, 15.0, 35.0, 20.0 ]
				}

			}
, 			{
				"box" : 				{
					"fontname" : "Arial",
					"fontsize" : 12.0,
					"id" : "obj-38",
					"linecount" : 6,
					"maxclass" : "newobj",
					"numinlets" : 1,
					"numoutlets" : 3,
					"outlettype" : [ "", "", "" ],
					"patching_rect" : [ 600.0, 215.0, 148.0, 89.0 ],
					"text" : "jcom.message smoothing @type decimal @range/bounds 0. 100. @range/clipmode both @value/default 20. @repetitions/allow 1"
				}

			}
, 			{
				"box" : 				{
					"fontname" : "Arial",
					"fontsize" : 12.0,
					"id" : "obj-21",
					"maxclass" : "comment",
					"numinlets" : 1,
					"numoutlets" : 0,
					"patching_rect" : [ 345.0, 185.0, 20.0, 20.0 ],
					"presentation" : 1,
					"presentation_rect" : [ 165.0, 15.0, 20.0, 20.0 ],
					"text" : "Q"
				}

			}
, 			{
				"box" : 				{
					"fontname" : "Arial",
					"fontsize" : 12.0,
					"id" : "obj-23",
					"maxclass" : "flonum",
					"numinlets" : 1,
					"numoutlets" : 2,
					"outlettype" : [ "float", "bang" ],
					"patching_rect" : [ 290.0, 185.0, 50.0, 20.0 ],
					"presentation" : 1,
					"presentation_rect" : [ 130.0, 15.0, 35.0, 20.0 ]
				}

			}
, 			{
				"box" : 				{
					"fontname" : "Arial",
					"fontsize" : 12.0,
					"id" : "obj-24",
					"linecount" : 6,
					"maxclass" : "newobj",
					"numinlets" : 1,
					"numoutlets" : 3,
					"outlettype" : [ "", "", "" ],
					"patching_rect" : [ 290.0, 215.0, 137.0, 89.0 ],
					"text" : "jcom.message q @type decimal @range/bounds 0. 100. @range/clipmode both @value/default 95. @repetitions/allow 1"
				}

			}
, 			{
				"box" : 				{
					"fontname" : "Arial",
					"fontsize" : 12.0,
					"id" : "obj-13",
					"maxclass" : "newobj",
					"numinlets" : 1,
					"numoutlets" : 1,
					"outlettype" : [ "" ],
					"patching_rect" : [ 15.0, 155.0, 103.0, 20.0 ],
					"text" : "prepend cascade"
				}

			}
, 			{
				"box" : 				{
					"id" : "obj-12",
					"ignoreclick" : 1,
					"maxclass" : "filtergraph~",
					"nfilters" : 24,
					"numinlets" : 8,
					"numoutlets" : 7,
					"outlettype" : [ "list", "float", "float", "float", "float", "list", "int" ],
					"patching_rect" : [ 15.0, 180.0, 256.0, 128.0 ],
					"presentation" : 1,
					"presentation_rect" : [ 5.0, 40.0, 180.0, 133.0 ],
					"setfilter" : [ 23, 0, 1, 0, 0, 15920.0, 1.0, 2.5, 0.0, 0.0, 0.0, 0.0, 0.0, 0.0, 22, 0, 1, 0, 0, 15880.0, 1.0, 2.5, 0.0, 0.0, 0.0, 0.0, 0.0, 0.0, 21, 0, 1, 0, 0, 15840.0, 1.0, 2.5, 0.0, 0.0, 0.0, 0.0, 0.0, 0.0, 20, 0, 1, 0, 0, 15800.0, 1.0, 2.5, 0.0, 0.0, 0.0, 0.0, 0.0, 0.0, 19, 0, 1, 0, 0, 15760.0, 1.0, 2.5, 0.0, 0.0, 0.0, 0.0, 0.0, 0.0, 18, 0, 1, 0, 0, 15720.0, 1.0, 2.5, 0.0, 0.0, 0.0, 0.0, 0.0, 0.0, 17, 0, 1, 0, 0, 15680.0, 1.0, 2.5, 0.0, 0.0, 0.0, 0.0, 0.0, 0.0, 16, 0, 1, 0, 0, 15640.0, 1.0, 2.5, 0.0, 0.0, 0.0, 0.0, 0.0, 0.0, 15, 0, 1, 0, 0, 15600.0, 1.0, 2.5, 0.0, 0.0, 0.0, 0.0, 0.0, 0.0, 14, 0, 1, 0, 0, 11677.169922, 1.0, 2.5, 0.0, 0.0, 0.0, 0.0, 0.0, 0.0, 13, 0, 1, 0, 0, 7784.780273, 1.0, 2.5, 0.0, 0.0, 0.0, 0.0, 0.0, 0.0, 12, 0, 1, 0, 0, 5189.853516, 1.0, 2.5, 0.0, 0.0, 0.0, 0.0, 0.0, 0.0, 11, 0, 1, 0, 0, 3459.902344, 1.0, 2.5, 0.0, 0.0, 0.0, 0.0, 0.0, 0.0, 10, 0, 1, 0, 0, 2306.601562, 1.0, 2.5, 0.0, 0.0, 0.0, 0.0, 0.0, 0.0, 9, 0, 1, 0, 0, 1537.734375, 1.0, 2.5, 0.0, 0.0, 0.0, 0.0, 0.0, 0.0, 8, 0, 1, 0, 0, 1025.15625, 1.0, 2.5, 0.0, 0.0, 0.0, 0.0, 0.0, 0.0, 7, 0, 1, 0, 0, 683.4375, 1.0, 2.5, 0.0, 0.0, 0.0, 0.0, 0.0, 0.0, 6, 0, 1, 0, 0, 455.625, 1.0, 2.5, 0.0, 0.0, 0.0, 0.0, 0.0, 0.0, 5, 0, 1, 0, 0, 303.75, 1.0, 2.5, 0.0, 0.0, 0.0, 0.0, 0.0, 0.0, 4, 0, 1, 0, 0, 202.5, 1.0, 2.5, 0.0, 0.0, 0.0, 0.0, 0.0, 0.0, 3, 0, 1, 0, 0, 135.0, 1.0, 2.5, 0.0, 0.0, 0.0, 0.0, 0.0, 0.0, 2, 0, 1, 0, 0, 90.0, 1.0, 2.5, 0.0, 0.0, 0.0, 0.0, 0.0, 0.0, 1, 0, 1, 0, 0, 60.0, 1.0, 2.5, 0.0, 0.0, 0.0, 0.0, 0.0, 0.0, 0, 0, 1, 0, 0, 40.0, 1.0, 2.5, 0.0, 0.0, 0.0, 0.0, 0.0, 0.0 ]
				}

			}
, 			{
				"box" : 				{
					"fontname" : "Arial",
					"fontsize" : 12.0,
					"id" : "obj-81",
					"maxclass" : "newobj",
					"numinlets" : 1,
					"numoutlets" : 3,
					"outlettype" : [ "/init", "", "" ],
					"patching_rect" : [ 220.0, 35.0, 159.0, 20.0 ],
					"text" : "j264.common.parambp 1x1"
				}

			}
, 			{
				"box" : 				{
					"fontname" : "Arial",
					"fontsize" : 12.0,
					"id" : "obj-43",
					"maxclass" : "newobj",
					"numinlets" : 1,
					"numoutlets" : 1,
					"outlettype" : [ "" ],
					"patching_rect" : [ 795.0, 595.0, 20.0, 20.0 ],
					"text" : "t l"
				}

			}
, 			{
				"box" : 				{
					"fontname" : "Arial",
					"fontsize" : 12.0,
					"id" : "obj-26",
					"maxclass" : "newobj",
					"numinlets" : 1,
					"numoutlets" : 1,
					"outlettype" : [ "" ],
					"patching_rect" : [ 535.0, 595.0, 20.0, 20.0 ],
					"text" : "t l"
				}

			}
, 			{
				"box" : 				{
					"fontname" : "Arial",
					"fontsize" : 12.0,
					"id" : "obj-22",
					"maxclass" : "newobj",
					"numinlets" : 1,
					"numoutlets" : 1,
					"outlettype" : [ "" ],
					"patching_rect" : [ 275.0, 595.0, 20.0, 20.0 ],
					"text" : "t l"
				}

			}
, 			{
				"box" : 				{
					"fontname" : "Arial",
					"fontsize" : 12.0,
					"id" : "obj-11",
					"maxclass" : "newobj",
					"numinlets" : 1,
					"numoutlets" : 1,
					"outlettype" : [ "" ],
					"patching_rect" : [ 15.0, 595.0, 20.0, 20.0 ],
					"text" : "t l"
				}

			}
, 			{
				"box" : 				{
					"fontname" : "Arial",
					"fontsize" : 12.0,
					"id" : "obj-78",
					"maxclass" : "newobj",
					"numinlets" : 1,
					"numoutlets" : 1,
					"outlettype" : [ "" ],
					"patching_rect" : [ 920.0, 565.0, 81.0, 20.0 ],
					"text" : "prepend /two"
				}

			}
, 			{
				"box" : 				{
					"fontname" : "Arial",
					"fontsize" : 12.0,
					"id" : "obj-79",
					"maxclass" : "newobj",
					"numinlets" : 1,
					"numoutlets" : 1,
					"outlettype" : [ "" ],
					"patching_rect" : [ 795.0, 565.0, 81.0, 20.0 ],
					"text" : "prepend /one"
				}

			}
, 			{
				"box" : 				{
					"fontname" : "Arial",
					"fontsize" : 12.0,
					"id" : "obj-76",
					"maxclass" : "newobj",
					"numinlets" : 1,
					"numoutlets" : 1,
					"outlettype" : [ "" ],
					"patching_rect" : [ 660.0, 565.0, 81.0, 20.0 ],
					"text" : "prepend /two"
				}

			}
, 			{
				"box" : 				{
					"fontname" : "Arial",
					"fontsize" : 12.0,
					"id" : "obj-77",
					"maxclass" : "newobj",
					"numinlets" : 1,
					"numoutlets" : 1,
					"outlettype" : [ "" ],
					"patching_rect" : [ 535.0, 565.0, 81.0, 20.0 ],
					"text" : "prepend /one"
				}

			}
, 			{
				"box" : 				{
					"fontname" : "Arial",
					"fontsize" : 12.0,
					"id" : "obj-74",
					"maxclass" : "newobj",
					"numinlets" : 1,
					"numoutlets" : 1,
					"outlettype" : [ "" ],
					"patching_rect" : [ 400.0, 565.0, 81.0, 20.0 ],
					"text" : "prepend /two"
				}

			}
, 			{
				"box" : 				{
					"fontname" : "Arial",
					"fontsize" : 12.0,
					"id" : "obj-75",
					"maxclass" : "newobj",
					"numinlets" : 1,
					"numoutlets" : 1,
					"outlettype" : [ "" ],
					"patching_rect" : [ 275.0, 565.0, 81.0, 20.0 ],
					"text" : "prepend /one"
				}

			}
, 			{
				"box" : 				{
					"fontname" : "Arial",
					"fontsize" : 12.0,
					"id" : "obj-64",
					"maxclass" : "newobj",
					"numinlets" : 1,
					"numoutlets" : 1,
					"outlettype" : [ "" ],
					"patching_rect" : [ 140.0, 565.0, 81.0, 20.0 ],
					"text" : "prepend /two"
				}

			}
, 			{
				"box" : 				{
					"fontname" : "Arial",
					"fontsize" : 12.0,
					"id" : "obj-20",
					"maxclass" : "newobj",
					"numinlets" : 1,
					"numoutlets" : 1,
					"outlettype" : [ "" ],
					"patching_rect" : [ 15.0, 565.0, 81.0, 20.0 ],
					"text" : "prepend /one"
				}

			}
, 			{
				"box" : 				{
					"comment" : "",
					"id" : "obj-73",
					"maxclass" : "inlet",
					"numinlets" : 0,
					"numoutlets" : 1,
					"outlettype" : [ "" ],
					"patching_rect" : [ 15.0, 10.0, 20.0, 20.0 ]
				}

			}
, 			{
				"box" : 				{
					"args" : [ 8 ],
					"id" : "obj-29",
					"maxclass" : "bpatcher",
					"name" : "j264.ui.sendmenu.maxpat",
					"numinlets" : 1,
					"numoutlets" : 1,
					"outlettype" : [ "" ],
					"patching_rect" : [ 920.0, 540.0, 115.0, 20.0 ],
					"presentation" : 1,
					"presentation_rect" : [ 188.0, 155.0, 95.0, 20.0 ]
				}

			}
, 			{
				"box" : 				{
					"args" : [ 7 ],
					"id" : "obj-51",
					"maxclass" : "bpatcher",
					"name" : "j264.ui.sendmenu.maxpat",
					"numinlets" : 1,
					"numoutlets" : 1,
					"outlettype" : [ "" ],
					"patching_rect" : [ 795.0, 540.0, 115.0, 20.0 ],
					"presentation" : 1,
					"presentation_rect" : [ 188.0, 135.0, 95.0, 20.0 ]
				}

			}
, 			{
				"box" : 				{
					"args" : [ 6 ],
					"id" : "obj-52",
					"maxclass" : "bpatcher",
					"name" : "j264.ui.sendmenu.maxpat",
					"numinlets" : 1,
					"numoutlets" : 1,
					"outlettype" : [ "" ],
					"patching_rect" : [ 660.0, 540.0, 115.0, 20.0 ],
					"presentation" : 1,
					"presentation_rect" : [ 188.0, 115.0, 95.0, 20.0 ]
				}

			}
, 			{
				"box" : 				{
					"args" : [ 5 ],
					"id" : "obj-59",
					"maxclass" : "bpatcher",
					"name" : "j264.ui.sendmenu.maxpat",
					"numinlets" : 1,
					"numoutlets" : 1,
					"outlettype" : [ "" ],
					"patching_rect" : [ 535.0, 540.0, 115.0, 20.0 ],
					"presentation" : 1,
					"presentation_rect" : [ 188.0, 95.0, 95.0, 20.0 ]
				}

			}
, 			{
				"box" : 				{
					"fontname" : "Arial",
					"fontsize" : 12.0,
					"id" : "obj-60",
					"maxclass" : "newobj",
					"numinlets" : 9,
					"numoutlets" : 9,
					"outlettype" : [ "", "", "", "", "", "", "", "", "" ],
					"patching_rect" : [ 795.0, 320.0, 240.0, 20.0 ],
					"text" : "j264.io9 #0"
				}

			}
, 			{
				"box" : 				{
					"args" : [  ],
					"id" : "obj-61",
					"maxclass" : "bpatcher",
					"name" : "j264.bp.paramsend.2x~.78.maxpat",
					"numinlets" : 9,
					"numoutlets" : 2,
					"outlettype" : [ "", "" ],
					"patching_rect" : [ 795.0, 350.0, 240.0, 180.0 ],
					"presentation" : 1,
					"presentation_rect" : [ 0.0, 785.0, 290.0, 180.0 ]
				}

			}
, 			{
				"box" : 				{
					"fontname" : "Arial",
					"fontsize" : 12.0,
					"id" : "obj-71",
					"maxclass" : "newobj",
					"numinlets" : 9,
					"numoutlets" : 9,
					"outlettype" : [ "", "", "", "", "", "", "", "", "" ],
					"patching_rect" : [ 535.0, 320.0, 240.0, 20.0 ],
					"text" : "j264.io9 #0"
				}

			}
, 			{
				"box" : 				{
					"args" : [  ],
					"id" : "obj-72",
					"maxclass" : "bpatcher",
					"name" : "j264.bp.paramsend.2x~.56.maxpat",
					"numinlets" : 9,
					"numoutlets" : 2,
					"outlettype" : [ "", "" ],
					"patching_rect" : [ 535.0, 350.0, 240.0, 180.0 ],
					"presentation" : 1,
					"presentation_rect" : [ 0.0, 590.0, 290.0, 180.0 ]
				}

			}
, 			{
				"box" : 				{
					"fontname" : "Arial",
					"fontsize" : 12.0,
					"id" : "obj-35",
					"maxclass" : "message",
					"numinlets" : 2,
					"numoutlets" : 1,
					"outlettype" : [ "" ],
					"patching_rect" : [ 395.0, 35.0, 37.0, 18.0 ],
					"presentation" : 1,
					"presentation_rect" : [ 5.0, 15.0, 37.0, 18.0 ],
					"text" : "clear"
				}

			}
, 			{
				"box" : 				{
					"fontname" : "Arial",
					"fontsize" : 12.0,
					"id" : "obj-27",
					"maxclass" : "newobj",
					"numinlets" : 1,
					"numoutlets" : 3,
					"outlettype" : [ "", "", "" ],
					"patching_rect" : [ 395.0, 60.0, 297.0, 20.0 ],
					"text" : "jcom.message clear @type none @repetitions/allow 1"
				}

			}
, 			{
				"box" : 				{
					"args" : [ 4 ],
					"id" : "obj-69",
					"maxclass" : "bpatcher",
					"name" : "j264.ui.sendmenu.maxpat",
					"numinlets" : 1,
					"numoutlets" : 1,
					"outlettype" : [ "" ],
					"patching_rect" : [ 400.0, 540.0, 115.0, 20.0 ],
					"presentation" : 1,
					"presentation_rect" : [ 188.0, 75.0, 95.0, 20.0 ]
				}

			}
, 			{
				"box" : 				{
					"args" : [ 3 ],
					"id" : "obj-70",
					"maxclass" : "bpatcher",
					"name" : "j264.ui.sendmenu.maxpat",
					"numinlets" : 1,
					"numoutlets" : 1,
					"outlettype" : [ "" ],
					"patching_rect" : [ 275.0, 540.0, 115.0, 20.0 ],
					"presentation" : 1,
					"presentation_rect" : [ 188.0, 55.0, 95.0, 20.0 ]
				}

			}
, 			{
				"box" : 				{
					"args" : [ 2 ],
					"id" : "obj-68",
					"maxclass" : "bpatcher",
					"name" : "j264.ui.sendmenu.maxpat",
					"numinlets" : 1,
					"numoutlets" : 1,
					"outlettype" : [ "" ],
					"patching_rect" : [ 140.0, 540.0, 115.0, 20.0 ],
					"presentation" : 1,
					"presentation_rect" : [ 188.0, 35.0, 95.0, 20.0 ]
				}

			}
, 			{
				"box" : 				{
					"args" : [ 1 ],
					"id" : "obj-67",
					"maxclass" : "bpatcher",
					"name" : "j264.ui.sendmenu.maxpat",
					"numinlets" : 1,
					"numoutlets" : 1,
					"outlettype" : [ "" ],
					"patching_rect" : [ 15.0, 540.0, 115.0, 20.0 ],
					"presentation" : 1,
					"presentation_rect" : [ 188.0, 15.0, 95.0, 20.0 ]
				}

			}
, 			{
				"box" : 				{
					"fontname" : "Arial",
					"fontsize" : 12.0,
					"id" : "obj-47",
					"maxclass" : "newobj",
					"numinlets" : 9,
					"numoutlets" : 9,
					"outlettype" : [ "", "", "", "", "", "", "", "", "" ],
					"patching_rect" : [ 275.0, 320.0, 240.0, 20.0 ],
					"text" : "j264.io9 #0"
				}

			}
, 			{
				"box" : 				{
					"args" : [  ],
					"id" : "obj-48",
					"maxclass" : "bpatcher",
					"name" : "j264.bp.paramsend.2x~.34.maxpat",
					"numinlets" : 9,
					"numoutlets" : 2,
					"outlettype" : [ "", "" ],
					"patching_rect" : [ 275.0, 350.0, 240.0, 180.0 ],
					"presentation" : 1,
					"presentation_rect" : [ 0.0, 395.0, 290.0, 175.0 ]
				}

			}
, 			{
				"box" : 				{
					"fontname" : "Arial",
					"fontsize" : 12.0,
					"id" : "obj-37",
					"maxclass" : "newobj",
					"numinlets" : 9,
					"numoutlets" : 9,
					"outlettype" : [ "", "", "", "", "", "", "", "", "" ],
					"patching_rect" : [ 15.0, 320.0, 240.0, 20.0 ],
					"text" : "j264.io9 #0"
				}

			}
, 			{
				"box" : 				{
					"fontname" : "Arial",
					"fontsize" : 12.0,
					"id" : "obj-36",
					"maxclass" : "newobj",
					"numinlets" : 9,
					"numoutlets" : 9,
					"outlettype" : [ "", "", "", "", "", "", "", "", "" ],
					"patching_rect" : [ 15.0, 65.0, 224.0, 20.0 ],
					"text" : "j264.io9 #0"
				}

			}
, 			{
				"box" : 				{
					"fontname" : "Arial",
					"fontsize" : 12.0,
					"id" : "obj-17",
					"maxclass" : "newobj",
					"numinlets" : 1,
					"numoutlets" : 2,
					"outlettype" : [ "", "" ],
					"patching_rect" : [ 245.0, 65.0, 69.0, 20.0 ],
					"save" : [ "#N", "thispatcher", ";", "#Q", "end", ";" ],
					"text" : "thispatcher"
				}

			}
, 			{
				"box" : 				{
					"comment" : "",
					"id" : "obj-10",
					"maxclass" : "inlet",
					"numinlets" : 0,
					"numoutlets" : 1,
					"outlettype" : [ "" ],
					"patching_rect" : [ 194.0, 10.0, 20.0, 20.0 ]
				}

			}
, 			{
				"box" : 				{
					"comment" : "",
					"id" : "obj-9",
					"maxclass" : "inlet",
					"numinlets" : 0,
					"numoutlets" : 1,
					"outlettype" : [ "" ],
					"patching_rect" : [ 169.0, 10.0, 20.0, 20.0 ]
				}

			}
, 			{
				"box" : 				{
					"comment" : "",
					"id" : "obj-8",
					"maxclass" : "inlet",
					"numinlets" : 0,
					"numoutlets" : 1,
					"outlettype" : [ "" ],
					"patching_rect" : [ 143.0, 10.0, 20.0, 20.0 ]
				}

			}
, 			{
				"box" : 				{
					"comment" : "",
					"id" : "obj-7",
					"maxclass" : "inlet",
					"numinlets" : 0,
					"numoutlets" : 1,
					"outlettype" : [ "" ],
					"patching_rect" : [ 118.0, 10.0, 20.0, 20.0 ]
				}

			}
, 			{
				"box" : 				{
					"comment" : "",
					"id" : "obj-6",
					"maxclass" : "inlet",
					"numinlets" : 0,
					"numoutlets" : 1,
					"outlettype" : [ "" ],
					"patching_rect" : [ 92.0, 10.0, 20.0, 20.0 ]
				}

			}
, 			{
				"box" : 				{
					"comment" : "",
					"id" : "obj-5",
					"maxclass" : "inlet",
					"numinlets" : 0,
					"numoutlets" : 1,
					"outlettype" : [ "" ],
					"patching_rect" : [ 66.0, 10.0, 20.0, 20.0 ]
				}

			}
, 			{
				"box" : 				{
					"comment" : "",
					"id" : "obj-4",
					"maxclass" : "inlet",
					"numinlets" : 0,
					"numoutlets" : 1,
					"outlettype" : [ "" ],
					"patching_rect" : [ 41.0, 10.0, 20.0, 20.0 ]
				}

			}
, 			{
				"box" : 				{
					"args" : [  ],
					"id" : "obj-3",
					"maxclass" : "bpatcher",
					"name" : "j264.bp.paramsend.2x~.12.maxpat",
					"numinlets" : 9,
					"numoutlets" : 2,
					"outlettype" : [ "", "" ],
					"patching_rect" : [ 15.0, 350.0, 240.0, 180.0 ],
					"presentation" : 1,
					"presentation_rect" : [ 0.0, 200.0, 290.0, 175.0 ]
				}

			}
, 			{
				"box" : 				{
					"comment" : "",
					"id" : "obj-1",
					"maxclass" : "inlet",
					"numinlets" : 0,
					"numoutlets" : 1,
					"outlettype" : [ "" ],
					"patching_rect" : [ 220.0, 10.0, 20.0, 20.0 ]
				}

			}
, 			{
				"box" : 				{
					"background" : 1,
					"bgcolor" : [ 0.666667, 0.666667, 0.666667, 0.0 ],
					"border" : 2,
					"bordercolor" : [ 0.6, 0.6, 0.6, 1.0 ],
					"id" : "obj-53",
					"maxclass" : "panel",
					"numinlets" : 1,
					"numoutlets" : 0,
					"patching_rect" : [ 245.0, 10.0, 20.0, 20.0 ],
					"presentation" : 1,
					"presentation_rect" : [ 0.0, 10.0, 290.0, 170.0 ]
				}

			}
 ],
		"lines" : [ 			{
				"patchline" : 				{
					"destination" : [ "obj-81", 0 ],
					"hidden" : 0,
					"midpoints" : [  ],
					"source" : [ "obj-1", 0 ]
				}

			}
, 			{
				"patchline" : 				{
					"destination" : [ "obj-36", 7 ],
					"hidden" : 0,
					"midpoints" : [  ],
					"source" : [ "obj-10", 0 ]
				}

			}
, 			{
				"patchline" : 				{
					"destination" : [ "obj-3", 8 ],
					"hidden" : 0,
					"midpoints" : [ 24.5, 620.0, 9.0, 620.0, 9.0, 345.0, 245.5, 345.0 ],
					"source" : [ "obj-11", 0 ]
				}

			}
, 			{
				"patchline" : 				{
					"destination" : [ "obj-12", 0 ],
					"hidden" : 0,
					"midpoints" : [  ],
					"source" : [ "obj-13", 0 ]
				}

			}
, 			{
				"patchline" : 				{
					"destination" : [ "obj-23", 0 ],
					"hidden" : 0,
					"midpoints" : [  ],
					"source" : [ "obj-18", 0 ]
				}

			}
, 			{
				"patchline" : 				{
					"destination" : [ "obj-11", 0 ],
					"hidden" : 0,
					"midpoints" : [  ],
					"source" : [ "obj-20", 0 ]
				}

			}
, 			{
				"patchline" : 				{
					"destination" : [ "obj-48", 8 ],
					"hidden" : 0,
					"midpoints" : [ 284.5, 620.0, 270.0, 620.0, 270.0, 345.0, 505.5, 345.0 ],
					"source" : [ "obj-22", 0 ]
				}

			}
, 			{
				"patchline" : 				{
					"destination" : [ "obj-24", 0 ],
					"hidden" : 0,
					"midpoints" : [  ],
					"source" : [ "obj-23", 0 ]
				}

			}
, 			{
				"patchline" : 				{
					"destination" : [ "obj-23", 0 ],
					"hidden" : 0,
					"midpoints" : [ 299.5, 310.0, 285.0, 310.0, 285.0, 180.0, 299.5, 180.0 ],
					"source" : [ "obj-24", 0 ]
				}

			}
, 			{
				"patchline" : 				{
					"destination" : [ "obj-72", 8 ],
					"hidden" : 0,
					"midpoints" : [ 544.5, 620.0, 530.0, 620.0, 530.0, 345.0, 765.5, 345.0 ],
					"source" : [ "obj-26", 0 ]
				}

			}
, 			{
				"patchline" : 				{
					"destination" : [ "obj-34", 0 ],
					"hidden" : 0,
					"midpoints" : [  ],
					"source" : [ "obj-28", 0 ]
				}

			}
, 			{
				"patchline" : 				{
					"destination" : [ "obj-78", 0 ],
					"hidden" : 0,
					"midpoints" : [  ],
					"source" : [ "obj-29", 0 ]
				}

			}
, 			{
				"patchline" : 				{
					"destination" : [ "obj-67", 0 ],
					"hidden" : 0,
					"midpoints" : [  ],
					"source" : [ "obj-3", 0 ]
				}

			}
, 			{
				"patchline" : 				{
					"destination" : [ "obj-68", 0 ],
					"hidden" : 0,
					"midpoints" : [ 245.5, 535.0, 149.5, 535.0 ],
					"source" : [ "obj-3", 1 ]
				}

			}
, 			{
				"patchline" : 				{
					"destination" : [ "obj-38", 0 ],
					"hidden" : 0,
					"midpoints" : [  ],
					"source" : [ "obj-34", 0 ]
				}

			}
, 			{
				"patchline" : 				{
					"destination" : [ "obj-27", 0 ],
					"hidden" : 0,
					"midpoints" : [  ],
					"source" : [ "obj-35", 0 ]
				}

			}
, 			{
				"patchline" : 				{
					"destination" : [ "obj-3", 8 ],
					"hidden" : 0,
					"midpoints" : [  ],
					"source" : [ "obj-37", 8 ]
				}

			}
, 			{
				"patchline" : 				{
					"destination" : [ "obj-3", 7 ],
					"hidden" : 0,
					"midpoints" : [  ],
					"source" : [ "obj-37", 7 ]
				}

			}
, 			{
				"patchline" : 				{
					"destination" : [ "obj-3", 6 ],
					"hidden" : 0,
					"midpoints" : [  ],
					"source" : [ "obj-37", 6 ]
				}

			}
, 			{
				"patchline" : 				{
					"destination" : [ "obj-3", 5 ],
					"hidden" : 0,
					"midpoints" : [  ],
					"source" : [ "obj-37", 5 ]
				}

			}
, 			{
				"patchline" : 				{
					"destination" : [ "obj-3", 4 ],
					"hidden" : 0,
					"midpoints" : [  ],
					"source" : [ "obj-37", 4 ]
				}

			}
, 			{
				"patchline" : 				{
					"destination" : [ "obj-3", 3 ],
					"hidden" : 0,
					"midpoints" : [  ],
					"source" : [ "obj-37", 3 ]
				}

			}
, 			{
				"patchline" : 				{
					"destination" : [ "obj-3", 2 ],
					"hidden" : 0,
					"midpoints" : [  ],
					"source" : [ "obj-37", 2 ]
				}

			}
, 			{
				"patchline" : 				{
					"destination" : [ "obj-3", 1 ],
					"hidden" : 0,
					"midpoints" : [  ],
					"source" : [ "obj-37", 1 ]
				}

			}
, 			{
				"patchline" : 				{
					"destination" : [ "obj-3", 0 ],
					"hidden" : 0,
					"midpoints" : [  ],
					"source" : [ "obj-37", 0 ]
				}

			}
, 			{
				"patchline" : 				{
					"destination" : [ "obj-34", 0 ],
					"hidden" : 0,
					"midpoints" : [ 609.5, 310.0, 595.0, 310.0, 595.0, 180.0, 609.5, 180.0 ],
					"source" : [ "obj-38", 0 ]
				}

			}
, 			{
				"patchline" : 				{
					"destination" : [ "obj-13", 0 ],
					"hidden" : 0,
					"midpoints" : [  ],
					"source" : [ "obj-39", 0 ]
				}

			}
, 			{
				"patchline" : 				{
					"destination" : [ "obj-36", 1 ],
					"hidden" : 0,
					"midpoints" : [  ],
					"source" : [ "obj-4", 0 ]
				}

			}
, 			{
				"patchline" : 				{
					"destination" : [ "obj-61", 8 ],
					"hidden" : 0,
					"midpoints" : [ 804.5, 619.0, 790.0, 619.0, 790.0, 345.0, 1025.5, 345.0 ],
					"source" : [ "obj-43", 0 ]
				}

			}
, 			{
				"patchline" : 				{
					"destination" : [ "obj-48", 8 ],
					"hidden" : 0,
					"midpoints" : [  ],
					"source" : [ "obj-47", 8 ]
				}

			}
, 			{
				"patchline" : 				{
					"destination" : [ "obj-48", 7 ],
					"hidden" : 0,
					"midpoints" : [  ],
					"source" : [ "obj-47", 7 ]
				}

			}
, 			{
				"patchline" : 				{
					"destination" : [ "obj-48", 6 ],
					"hidden" : 0,
					"midpoints" : [  ],
					"source" : [ "obj-47", 6 ]
				}

			}
, 			{
				"patchline" : 				{
					"destination" : [ "obj-48", 5 ],
					"hidden" : 0,
					"midpoints" : [  ],
					"source" : [ "obj-47", 5 ]
				}

			}
, 			{
				"patchline" : 				{
					"destination" : [ "obj-48", 4 ],
					"hidden" : 0,
					"midpoints" : [  ],
					"source" : [ "obj-47", 4 ]
				}

			}
, 			{
				"patchline" : 				{
					"destination" : [ "obj-48", 3 ],
					"hidden" : 0,
					"midpoints" : [  ],
					"source" : [ "obj-47", 3 ]
				}

			}
, 			{
				"patchline" : 				{
					"destination" : [ "obj-48", 2 ],
					"hidden" : 0,
					"midpoints" : [  ],
					"source" : [ "obj-47", 2 ]
				}

			}
, 			{
				"patchline" : 				{
					"destination" : [ "obj-48", 1 ],
					"hidden" : 0,
					"midpoints" : [  ],
					"source" : [ "obj-47", 1 ]
				}

			}
, 			{
				"patchline" : 				{
					"destination" : [ "obj-48", 0 ],
					"hidden" : 0,
					"midpoints" : [  ],
					"source" : [ "obj-47", 0 ]
				}

			}
, 			{
				"patchline" : 				{
					"destination" : [ "obj-69", 0 ],
					"hidden" : 0,
					"midpoints" : [ 505.5, 535.0, 409.5, 535.0 ],
					"source" : [ "obj-48", 1 ]
				}

			}
, 			{
				"patchline" : 				{
					"destination" : [ "obj-70", 0 ],
					"hidden" : 0,
					"midpoints" : [  ],
					"source" : [ "obj-48", 0 ]
				}

			}
, 			{
				"patchline" : 				{
					"destination" : [ "obj-36", 2 ],
					"hidden" : 0,
					"midpoints" : [  ],
					"source" : [ "obj-5", 0 ]
				}

			}
, 			{
				"patchline" : 				{
					"destination" : [ "obj-79", 0 ],
					"hidden" : 0,
					"midpoints" : [  ],
					"source" : [ "obj-51", 0 ]
				}

			}
, 			{
				"patchline" : 				{
					"destination" : [ "obj-76", 0 ],
					"hidden" : 0,
					"midpoints" : [  ],
					"source" : [ "obj-52", 0 ]
				}

			}
, 			{
				"patchline" : 				{
					"destination" : [ "obj-77", 0 ],
					"hidden" : 0,
					"midpoints" : [  ],
					"source" : [ "obj-59", 0 ]
				}

			}
, 			{
				"patchline" : 				{
					"destination" : [ "obj-36", 3 ],
					"hidden" : 0,
					"midpoints" : [  ],
					"source" : [ "obj-6", 0 ]
				}

			}
, 			{
				"patchline" : 				{
					"destination" : [ "obj-61", 8 ],
					"hidden" : 0,
					"midpoints" : [  ],
					"source" : [ "obj-60", 8 ]
				}

			}
, 			{
				"patchline" : 				{
					"destination" : [ "obj-61", 7 ],
					"hidden" : 0,
					"midpoints" : [  ],
					"source" : [ "obj-60", 7 ]
				}

			}
, 			{
				"patchline" : 				{
					"destination" : [ "obj-61", 6 ],
					"hidden" : 0,
					"midpoints" : [  ],
					"source" : [ "obj-60", 6 ]
				}

			}
, 			{
				"patchline" : 				{
					"destination" : [ "obj-61", 5 ],
					"hidden" : 0,
					"midpoints" : [  ],
					"source" : [ "obj-60", 5 ]
				}

			}
, 			{
				"patchline" : 				{
					"destination" : [ "obj-61", 4 ],
					"hidden" : 0,
					"midpoints" : [  ],
					"source" : [ "obj-60", 4 ]
				}

			}
, 			{
				"patchline" : 				{
					"destination" : [ "obj-61", 3 ],
					"hidden" : 0,
					"midpoints" : [  ],
					"source" : [ "obj-60", 3 ]
				}

			}
, 			{
				"patchline" : 				{
					"destination" : [ "obj-61", 2 ],
					"hidden" : 0,
					"midpoints" : [  ],
					"source" : [ "obj-60", 2 ]
				}

			}
, 			{
				"patchline" : 				{
					"destination" : [ "obj-61", 1 ],
					"hidden" : 0,
					"midpoints" : [  ],
					"source" : [ "obj-60", 1 ]
				}

			}
, 			{
				"patchline" : 				{
					"destination" : [ "obj-61", 0 ],
					"hidden" : 0,
					"midpoints" : [  ],
					"source" : [ "obj-60", 0 ]
				}

			}
, 			{
				"patchline" : 				{
					"destination" : [ "obj-29", 0 ],
					"hidden" : 0,
					"midpoints" : [ 1025.5, 534.0, 929.5, 534.0 ],
					"source" : [ "obj-61", 1 ]
				}

			}
, 			{
				"patchline" : 				{
					"destination" : [ "obj-51", 0 ],
					"hidden" : 0,
					"midpoints" : [  ],
					"source" : [ "obj-61", 0 ]
				}

			}
, 			{
				"patchline" : 				{
					"destination" : [ "obj-11", 0 ],
					"hidden" : 0,
					"midpoints" : [ 149.5, 590.0, 24.5, 590.0 ],
					"source" : [ "obj-64", 0 ]
				}

			}
, 			{
				"patchline" : 				{
					"destination" : [ "obj-20", 0 ],
					"hidden" : 0,
					"midpoints" : [  ],
					"source" : [ "obj-67", 0 ]
				}

			}
, 			{
				"patchline" : 				{
					"destination" : [ "obj-64", 0 ],
					"hidden" : 0,
					"midpoints" : [  ],
					"source" : [ "obj-68", 0 ]
				}

			}
, 			{
				"patchline" : 				{
					"destination" : [ "obj-74", 0 ],
					"hidden" : 0,
					"midpoints" : [  ],
					"source" : [ "obj-69", 0 ]
				}

			}
, 			{
				"patchline" : 				{
					"destination" : [ "obj-36", 4 ],
					"hidden" : 0,
					"midpoints" : [  ],
					"source" : [ "obj-7", 0 ]
				}

			}
, 			{
				"patchline" : 				{
					"destination" : [ "obj-75", 0 ],
					"hidden" : 0,
					"midpoints" : [  ],
					"source" : [ "obj-70", 0 ]
				}

			}
, 			{
				"patchline" : 				{
					"destination" : [ "obj-72", 8 ],
					"hidden" : 0,
					"midpoints" : [  ],
					"source" : [ "obj-71", 8 ]
				}

			}
, 			{
				"patchline" : 				{
					"destination" : [ "obj-72", 7 ],
					"hidden" : 0,
					"midpoints" : [  ],
					"source" : [ "obj-71", 7 ]
				}

			}
, 			{
				"patchline" : 				{
					"destination" : [ "obj-72", 6 ],
					"hidden" : 0,
					"midpoints" : [  ],
					"source" : [ "obj-71", 6 ]
				}

			}
, 			{
				"patchline" : 				{
					"destination" : [ "obj-72", 5 ],
					"hidden" : 0,
					"midpoints" : [  ],
					"source" : [ "obj-71", 5 ]
				}

			}
, 			{
				"patchline" : 				{
					"destination" : [ "obj-72", 4 ],
					"hidden" : 0,
					"midpoints" : [  ],
					"source" : [ "obj-71", 4 ]
				}

			}
, 			{
				"patchline" : 				{
					"destination" : [ "obj-72", 3 ],
					"hidden" : 0,
					"midpoints" : [  ],
					"source" : [ "obj-71", 3 ]
				}

			}
, 			{
				"patchline" : 				{
					"destination" : [ "obj-72", 2 ],
					"hidden" : 0,
					"midpoints" : [  ],
					"source" : [ "obj-71", 2 ]
				}

			}
, 			{
				"patchline" : 				{
					"destination" : [ "obj-72", 1 ],
					"hidden" : 0,
					"midpoints" : [  ],
					"source" : [ "obj-71", 1 ]
				}

			}
, 			{
				"patchline" : 				{
					"destination" : [ "obj-72", 0 ],
					"hidden" : 0,
					"midpoints" : [  ],
					"source" : [ "obj-71", 0 ]
				}

			}
, 			{
				"patchline" : 				{
					"destination" : [ "obj-52", 0 ],
					"hidden" : 0,
					"midpoints" : [ 765.5, 535.0, 669.5, 535.0 ],
					"source" : [ "obj-72", 1 ]
				}

			}
, 			{
				"patchline" : 				{
					"destination" : [ "obj-59", 0 ],
					"hidden" : 0,
					"midpoints" : [  ],
					"source" : [ "obj-72", 0 ]
				}

			}
, 			{
				"patchline" : 				{
					"destination" : [ "obj-36", 0 ],
					"hidden" : 0,
					"midpoints" : [  ],
					"source" : [ "obj-73", 0 ]
				}

			}
, 			{
				"patchline" : 				{
					"destination" : [ "obj-22", 0 ],
					"hidden" : 0,
					"midpoints" : [ 409.5, 590.0, 284.5, 590.0 ],
					"source" : [ "obj-74", 0 ]
				}

			}
, 			{
				"patchline" : 				{
					"destination" : [ "obj-22", 0 ],
					"hidden" : 0,
					"midpoints" : [  ],
					"source" : [ "obj-75", 0 ]
				}

			}
, 			{
				"patchline" : 				{
					"destination" : [ "obj-26", 0 ],
					"hidden" : 0,
					"midpoints" : [ 669.5, 590.0, 544.5, 590.0 ],
					"source" : [ "obj-76", 0 ]
				}

			}
, 			{
				"patchline" : 				{
					"destination" : [ "obj-26", 0 ],
					"hidden" : 0,
					"midpoints" : [  ],
					"source" : [ "obj-77", 0 ]
				}

			}
, 			{
				"patchline" : 				{
					"destination" : [ "obj-43", 0 ],
					"hidden" : 0,
					"midpoints" : [ 929.5, 590.0, 804.5, 590.0 ],
					"source" : [ "obj-78", 0 ]
				}

			}
, 			{
				"patchline" : 				{
					"destination" : [ "obj-43", 0 ],
					"hidden" : 0,
					"midpoints" : [  ],
					"source" : [ "obj-79", 0 ]
				}

			}
, 			{
				"patchline" : 				{
					"destination" : [ "obj-36", 5 ],
					"hidden" : 0,
					"midpoints" : [  ],
					"source" : [ "obj-8", 0 ]
				}

			}
, 			{
				"patchline" : 				{
					"destination" : [ "obj-17", 0 ],
					"hidden" : 0,
					"midpoints" : [ 299.5, 60.5, 254.5, 60.5 ],
					"source" : [ "obj-81", 1 ]
				}

			}
, 			{
				"patchline" : 				{
					"destination" : [ "obj-36", 8 ],
					"hidden" : 0,
					"midpoints" : [  ],
					"source" : [ "obj-81", 0 ]
				}

			}
, 			{
				"patchline" : 				{
					"destination" : [ "obj-39", 0 ],
					"hidden" : 0,
					"midpoints" : [ 369.5, 100.0, 24.5, 100.0 ],
					"source" : [ "obj-81", 2 ]
				}

			}
, 			{
				"patchline" : 				{
					"destination" : [ "obj-36", 6 ],
					"hidden" : 0,
					"midpoints" : [  ],
					"source" : [ "obj-9", 0 ]
				}

			}
 ]
	}

}
