{
	"patcher" : 	{
		"fileversion" : 1,
		"appversion" : 		{
			"major" : 6,
			"minor" : 0,
			"revision" : 1
		}
,
		"rect" : [ 35.0, 44.0, 1362.0, 678.0 ],
		"bglocked" : 0,
		"openinpresentation" : 0,
		"default_fontsize" : 12.0,
		"default_fontface" : 0,
		"default_fontname" : "Arial",
		"gridonopen" : 0,
		"gridsize" : [ 15.0, 15.0 ],
		"gridsnaponopen" : 0,
		"statusbarvisible" : 2,
		"toolbarvisible" : 1,
		"boxanimatetime" : 200,
		"imprint" : 0,
		"enablehscroll" : 1,
		"enablevscroll" : 1,
		"devicewidth" : 0.0,
		"description" : "",
		"digest" : "",
		"tags" : "",
		"boxes" : [ 			{
				"box" : 				{
					"fontname" : "Arial",
					"fontsize" : 12.0,
					"id" : "obj-74",
					"maxclass" : "newobj",
					"numinlets" : 1,
					"numoutlets" : 3,
					"outlettype" : [ "bang", "cr", "" ],
					"patching_rect" : [ 458.5, 240.0, 125.0, 20.0 ],
					"text" : "t b cr getNamespace\\,"
				}

			}
, 			{
				"box" : 				{
					"fontname" : "Arial",
					"fontsize" : 12.0,
					"id" : "obj-53",
					"maxclass" : "newobj",
					"numinlets" : 1,
					"numoutlets" : 3,
					"outlettype" : [ "cr", "\u002c", "" ],
					"patching_rect" : [ 994.5, 651.0, 82.0, 20.0 ],
					"text" : "t cr \\, getState"
				}

			}
, 			{
				"box" : 				{
					"fontname" : "Arial",
					"fontsize" : 12.0,
					"id" : "obj-104",
					"linecount" : 13,
					"maxclass" : "comment",
					"numinlets" : 1,
					"numoutlets" : 0,
					"patching_rect" : [ 875.5, 19.0, 674.0, 200.0 ],
					"text" : "j264.loghistory is for logging user actions \n\ninput: a bang to trigger the querying of all module names, member names and member attributes (including ranges, and value for parameters)\n\noutput:  generates two output files prefixed by \"logfile_changes\" and \"logfile_states\"\n\n- the file prefixed by \"logfile_changes\" stores all the msgs thats routed through jcom.receive jcom.remote.module.from.  intended to store a log of what \"knobs\" users touched and the values set, but also  stores the internal automated changes, (and unfortunately also stores all the msgs triggered by snapshot the state)\n\n- the file prefixed by \"logfile_states\" stores a snapshot of the state of all the parameter values every minute\n\n"
				}

			}
, 			{
				"box" : 				{
					"fontname" : "Arial",
					"fontsize" : 12.0,
					"id" : "obj-101",
					"maxclass" : "newobj",
					"numinlets" : 1,
					"numoutlets" : 1,
					"outlettype" : [ "" ],
					"patching_rect" : [ 1397.0, 779.0, 57.0, 20.0 ],
					"text" : "append \\,"
				}

			}
, 			{
				"box" : 				{
					"fontname" : "Arial",
					"fontsize" : 12.0,
					"id" : "obj-100",
					"maxclass" : "newobj",
					"numinlets" : 1,
					"numoutlets" : 3,
					"outlettype" : [ "bang", "bang", "bang" ],
					"patching_rect" : [ 1301.5, 566.5, 46.0, 20.0 ],
					"text" : "t b b b"
				}

			}
, 			{
				"box" : 				{
					"fontname" : "Arial",
					"fontsize" : 12.0,
					"id" : "obj-95",
					"maxclass" : "newobj",
					"numinlets" : 1,
					"numoutlets" : 1,
					"outlettype" : [ "" ],
					"patching_rect" : [ 1397.0, 743.0, 92.0, 20.0 ],
					"text" : "j264.timestamp"
				}

			}
, 			{
				"box" : 				{
					"fontname" : "Arial",
					"fontsize" : 12.0,
					"id" : "obj-90",
					"maxclass" : "newobj",
					"numinlets" : 1,
					"numoutlets" : 2,
					"outlettype" : [ "cr", "bang" ],
					"patching_rect" : [ 1379.0, 717.0, 37.0, 20.0 ],
					"text" : "t cr b"
				}

			}
, 			{
				"box" : 				{
					"fontname" : "Arial",
					"fontsize" : 12.0,
					"id" : "obj-78",
					"maxclass" : "message",
					"numinlets" : 2,
					"numoutlets" : 1,
					"outlettype" : [ "" ],
					"patching_rect" : [ 607.5, 78.0, 37.0, 18.0 ],
					"text" : "set 0"
				}

			}
, 			{
				"box" : 				{
					"fontname" : "Arial",
					"fontsize" : 12.0,
					"id" : "obj-75",
					"maxclass" : "number",
					"numinlets" : 1,
					"numoutlets" : 2,
					"outlettype" : [ "int", "bang" ],
					"parameter_enable" : 0,
					"patching_rect" : [ 390.0, 177.0, 50.0, 20.0 ]
				}

			}
, 			{
				"box" : 				{
					"fontname" : "Arial",
					"fontsize" : 12.0,
					"id" : "obj-71",
					"maxclass" : "newobj",
					"numinlets" : 1,
					"numoutlets" : 2,
					"outlettype" : [ "bang", "bang" ],
					"patching_rect" : [ 354.0, 119.0, 34.0, 20.0 ],
					"text" : "t b b"
				}

			}
, 			{
				"box" : 				{
					"fontname" : "Arial",
					"fontsize" : 12.0,
					"id" : "obj-42",
					"maxclass" : "number",
					"numinlets" : 1,
					"numoutlets" : 2,
					"outlettype" : [ "int", "bang" ],
					"parameter_enable" : 0,
					"patching_rect" : [ 458.5, 151.0, 50.0, 20.0 ]
				}

			}
, 			{
				"box" : 				{
					"fontname" : "Arial",
					"fontsize" : 12.0,
					"id" : "obj-35",
					"maxclass" : "newobj",
					"numinlets" : 1,
					"numoutlets" : 2,
					"outlettype" : [ "bang", "bang" ],
					"patching_rect" : [ 443.5, 52.0, 34.0, 20.0 ],
					"text" : "t b b"
				}

			}
, 			{
				"box" : 				{
					"fontname" : "Arial",
					"fontsize" : 12.0,
					"id" : "obj-32",
					"maxclass" : "newobj",
					"numinlets" : 1,
					"numoutlets" : 2,
					"outlettype" : [ "bang", "bang" ],
					"patching_rect" : [ 532.0, 52.0, 34.0, 20.0 ],
					"text" : "t b b"
				}

			}
, 			{
				"box" : 				{
					"fontname" : "Arial",
					"fontsize" : 12.0,
					"id" : "obj-72",
					"maxclass" : "number",
					"numinlets" : 1,
					"numoutlets" : 2,
					"outlettype" : [ "int", "bang" ],
					"parameter_enable" : 0,
					"patching_rect" : [ 1360.5, 507.0, 67.0, 20.0 ]
				}

			}
, 			{
				"box" : 				{
					"id" : "obj-54",
					"maxclass" : "toggle",
					"numinlets" : 1,
					"numoutlets" : 1,
					"outlettype" : [ "int" ],
					"parameter_enable" : 0,
					"patching_rect" : [ 1301.5, 507.0, 20.0, 20.0 ]
				}

			}
, 			{
				"box" : 				{
					"fontname" : "Verdana",
					"fontsize" : 10.0,
					"id" : "obj-33",
					"maxclass" : "newobj",
					"numinlets" : 1,
					"numoutlets" : 1,
					"outlettype" : [ "cr" ],
					"patching_rect" : [ 1301.5, 646.5, 150.0, 19.0 ],
					"text" : "j264.get_parameter_values"
				}

			}
, 			{
				"box" : 				{
					"fontname" : "Verdana",
					"fontsize" : 10.0,
					"id" : "obj-34",
					"maxclass" : "newobj",
					"numinlets" : 1,
					"numoutlets" : 1,
					"outlettype" : [ "" ],
					"patching_rect" : [ 1301.5, 616.5, 157.0, 19.0 ],
					"text" : "j264.get_names_of_modules"
				}

			}
, 			{
				"box" : 				{
					"id" : "obj-30",
					"maxclass" : "button",
					"numinlets" : 1,
					"numoutlets" : 1,
					"outlettype" : [ "bang" ],
					"patching_rect" : [ 1275.5, 566.5, 20.0, 20.0 ]
				}

			}
, 			{
				"box" : 				{
					"fontname" : "Arial",
					"fontsize" : 12.0,
					"id" : "obj-16",
					"maxclass" : "newobj",
					"numinlets" : 1,
					"numoutlets" : 1,
					"outlettype" : [ "bang" ],
					"patching_rect" : [ 1301.5, 478.0, 60.0, 20.0 ],
					"text" : "loadbang"
				}

			}
, 			{
				"box" : 				{
					"fontname" : "Arial",
					"fontsize" : 12.0,
					"id" : "obj-8",
					"maxclass" : "newobj",
					"numinlets" : 2,
					"numoutlets" : 1,
					"outlettype" : [ "bang" ],
					"patching_rect" : [ 1301.5, 535.5, 78.0, 20.0 ],
					"text" : "metro 60000"
				}

			}
, 			{
				"box" : 				{
					"fontname" : "Arial",
					"fontsize" : 12.0,
					"id" : "obj-56",
					"maxclass" : "message",
					"numinlets" : 2,
					"numoutlets" : 1,
					"outlettype" : [ "" ],
					"patching_rect" : [ 1341.5, 858.0, 37.0, 18.0 ],
					"text" : "clear"
				}

			}
, 			{
				"box" : 				{
					"id" : "obj-57",
					"maxclass" : "button",
					"numinlets" : 1,
					"numoutlets" : 1,
					"outlettype" : [ "bang" ],
					"patching_rect" : [ 1574.5, 703.0, 20.0, 20.0 ]
				}

			}
, 			{
				"box" : 				{
					"fontname" : "Arial",
					"fontsize" : 12.0,
					"id" : "obj-58",
					"maxclass" : "newobj",
					"numinlets" : 1,
					"numoutlets" : 1,
					"outlettype" : [ "" ],
					"patching_rect" : [ 1500.5, 808.0, 169.0, 20.0 ],
					"text" : "sprintf write log_states_%s.txt"
				}

			}
, 			{
				"box" : 				{
					"fontname" : "Arial",
					"fontsize" : 12.0,
					"id" : "obj-60",
					"maxclass" : "newobj",
					"numinlets" : 2,
					"numoutlets" : 1,
					"outlettype" : [ "int" ],
					"patching_rect" : [ 1461.5, 946.0, 32.5, 20.0 ],
					"text" : "> 1"
				}

			}
, 			{
				"box" : 				{
					"fontname" : "Arial",
					"fontsize" : 12.0,
					"id" : "obj-61",
					"maxclass" : "newobj",
					"numinlets" : 2,
					"numoutlets" : 1,
					"outlettype" : [ "" ],
					"patching_rect" : [ 1485.5, 867.0, 34.0, 20.0 ],
					"text" : "gate"
				}

			}
, 			{
				"box" : 				{
					"fontname" : "Arial",
					"fontsize" : 12.0,
					"id" : "obj-62",
					"maxclass" : "newobj",
					"numinlets" : 1,
					"numoutlets" : 2,
					"outlettype" : [ "bang", "query" ],
					"patching_rect" : [ 1500.5, 743.0, 100.0, 20.0 ],
					"text" : "t b query"
				}

			}
, 			{
				"box" : 				{
					"fontname" : "Arial",
					"fontsize" : 12.0,
					"id" : "obj-66",
					"maxclass" : "newobj",
					"numinlets" : 1,
					"numoutlets" : 1,
					"outlettype" : [ "" ],
					"patching_rect" : [ 1500.5, 779.0, 115.0, 20.0 ],
					"text" : "j264.datetimestamp"
				}

			}
, 			{
				"box" : 				{
					"fontname" : "Arial",
					"fontsize" : 12.0,
					"id" : "obj-67",
					"maxclass" : "number",
					"numinlets" : 1,
					"numoutlets" : 2,
					"outlettype" : [ "int", "bang" ],
					"parameter_enable" : 0,
					"patching_rect" : [ 1461.5, 921.0, 63.0, 20.0 ]
				}

			}
, 			{
				"box" : 				{
					"fontname" : "Arial",
					"fontsize" : 12.0,
					"id" : "obj-68",
					"maxclass" : "newobj",
					"numinlets" : 1,
					"numoutlets" : 3,
					"outlettype" : [ "", "bang", "int" ],
					"patching_rect" : [ 1301.5, 896.0, 179.0, 20.0 ],
					"text" : "text"
				}

			}
, 			{
				"box" : 				{
					"fontname" : "Arial",
					"fontsize" : 12.0,
					"id" : "obj-69",
					"maxclass" : "newobj",
					"numinlets" : 1,
					"numoutlets" : 2,
					"outlettype" : [ "query", "" ],
					"patching_rect" : [ 1301.5, 678.0, 53.0, 20.0 ],
					"text" : "t query l"
				}

			}
, 			{
				"box" : 				{
					"fontname" : "Arial",
					"fontsize" : 12.0,
					"id" : "obj-70",
					"maxclass" : "newobj",
					"numinlets" : 0,
					"numoutlets" : 1,
					"outlettype" : [ "bang" ],
					"patching_rect" : [ 1500.5, 703.0, 58.0, 20.0 ],
					"text" : "freebang"
				}

			}
, 			{
				"box" : 				{
					"fontname" : "Arial",
					"fontsize" : 12.0,
					"id" : "obj-55",
					"maxclass" : "message",
					"numinlets" : 2,
					"numoutlets" : 1,
					"outlettype" : [ "" ],
					"patching_rect" : [ 1024.5, 866.0, 37.0, 18.0 ],
					"text" : "clear"
				}

			}
, 			{
				"box" : 				{
					"id" : "obj-41",
					"maxclass" : "button",
					"numinlets" : 1,
					"numoutlets" : 1,
					"outlettype" : [ "bang" ],
					"patching_rect" : [ 1158.5, 702.0, 20.0, 20.0 ]
				}

			}
, 			{
				"box" : 				{
					"fontname" : "Arial",
					"fontsize" : 12.0,
					"id" : "obj-40",
					"maxclass" : "newobj",
					"numinlets" : 1,
					"numoutlets" : 1,
					"outlettype" : [ "" ],
					"patching_rect" : [ 1084.5, 813.0, 183.0, 20.0 ],
					"text" : "sprintf write log_changes_%s.txt"
				}

			}
, 			{
				"box" : 				{
					"fontname" : "Arial",
					"fontsize" : 12.0,
					"id" : "obj-23",
					"linecount" : 2,
					"maxclass" : "comment",
					"numinlets" : 1,
					"numoutlets" : 0,
					"patching_rect" : [ 570.0, 119.0, 296.0, 35.0 ],
					"text" : "if user has already triggered the \"discover\" process, \ndon't let the automatic delayed bang trigger again"
				}

			}
, 			{
				"box" : 				{
					"fontname" : "Arial",
					"fontsize" : 12.0,
					"id" : "obj-14",
					"maxclass" : "newobj",
					"numinlets" : 2,
					"numoutlets" : 1,
					"outlettype" : [ "int" ],
					"patching_rect" : [ 458.5, 177.0, 35.0, 20.0 ],
					"text" : "== 0"
				}

			}
, 			{
				"box" : 				{
					"fontname" : "Arial",
					"fontsize" : 12.0,
					"id" : "obj-11",
					"maxclass" : "newobj",
					"numinlets" : 2,
					"numoutlets" : 1,
					"outlettype" : [ "" ],
					"patching_rect" : [ 458.5, 214.0, 34.0, 20.0 ],
					"text" : "gate"
				}

			}
, 			{
				"box" : 				{
					"fontname" : "Arial",
					"fontsize" : 12.0,
					"id" : "obj-7",
					"maxclass" : "newobj",
					"numinlets" : 5,
					"numoutlets" : 4,
					"outlettype" : [ "int", "", "", "int" ],
					"patching_rect" : [ 458.5, 119.0, 73.0, 20.0 ],
					"text" : "counter"
				}

			}
, 			{
				"box" : 				{
					"fontname" : "Arial",
					"fontsize" : 12.0,
					"id" : "obj-13",
					"linecount" : 2,
					"maxclass" : "comment",
					"numinlets" : 1,
					"numoutlets" : 0,
					"patching_rect" : [ 196.0, 45.0, 155.0, 34.0 ],
					"text" : "open the gate even before \"discover\" takes place"
				}

			}
, 			{
				"box" : 				{
					"fontname" : "Arial",
					"fontsize" : 12.0,
					"id" : "obj-2",
					"maxclass" : "newobj",
					"numinlets" : 1,
					"numoutlets" : 2,
					"outlettype" : [ "bang", "int" ],
					"patching_rect" : [ 354.0, 52.0, 54.0, 20.0 ],
					"text" : "t bang 1"
				}

			}
, 			{
				"box" : 				{
					"fontname" : "Arial",
					"fontsize" : 12.0,
					"id" : "obj-15",
					"linecount" : 3,
					"maxclass" : "comment",
					"numinlets" : 1,
					"numoutlets" : 0,
					"patching_rect" : [ 72.0, 758.0, 150.0, 48.0 ],
					"text" : "still does not block out jcom msgs triggered by the \"discover\" process"
				}

			}
, 			{
				"box" : 				{
					"id" : "obj-12",
					"maxclass" : "button",
					"numinlets" : 1,
					"numoutlets" : 1,
					"outlettype" : [ "bang" ],
					"patching_rect" : [ 443.5, 19.0, 20.0, 20.0 ]
				}

			}
, 			{
				"box" : 				{
					"comment" : "",
					"id" : "obj-6",
					"maxclass" : "inlet",
					"numinlets" : 0,
					"numoutlets" : 1,
					"outlettype" : [ "" ],
					"patching_rect" : [ 532.0, 19.0, 25.0, 25.0 ]
				}

			}
, 			{
				"box" : 				{
					"fontname" : "Arial",
					"fontsize" : 12.0,
					"id" : "obj-10",
					"maxclass" : "message",
					"numinlets" : 2,
					"numoutlets" : 1,
					"outlettype" : [ "" ],
					"patching_rect" : [ 354.0, 287.0, 147.0, 18.0 ],
					"text" : "/discover /module_names"
				}

			}
, 			{
				"box" : 				{
					"fontname" : "Arial",
					"fontsize" : 12.0,
					"id" : "obj-4",
					"maxclass" : "newobj",
					"numinlets" : 2,
					"numoutlets" : 1,
					"outlettype" : [ "bang" ],
					"patching_rect" : [ 354.0, 88.0, 76.0, 20.0 ],
					"text" : "delay 15000"
				}

			}
, 			{
				"box" : 				{
					"fontname" : "Arial",
					"fontsize" : 12.0,
					"id" : "obj-3",
					"maxclass" : "newobj",
					"numinlets" : 1,
					"numoutlets" : 1,
					"outlettype" : [ "bang" ],
					"patching_rect" : [ 354.0, 19.0, 60.0, 20.0 ],
					"text" : "loadbang"
				}

			}
, 			{
				"box" : 				{
					"fontname" : "Arial",
					"fontsize" : 12.0,
					"id" : "obj-87",
					"maxclass" : "newobj",
					"numinlets" : 1,
					"numoutlets" : 0,
					"patching_rect" : [ 256.5, 964.0, 34.0, 20.0 ],
					"text" : "print"
				}

			}
, 			{
				"box" : 				{
					"fontname" : "Arial",
					"fontsize" : 12.0,
					"id" : "obj-84",
					"maxclass" : "newobj",
					"numinlets" : 1,
					"numoutlets" : 2,
					"outlettype" : [ "", "" ],
					"patching_rect" : [ 773.0, 547.0, 32.5, 20.0 ],
					"text" : "t l l"
				}

			}
, 			{
				"box" : 				{
					"fontname" : "Arial",
					"fontsize" : 12.0,
					"id" : "obj-83",
					"maxclass" : "newobj",
					"numinlets" : 1,
					"numoutlets" : 2,
					"outlettype" : [ "", "" ],
					"patching_rect" : [ 619.0, 547.0, 32.5, 20.0 ],
					"text" : "t l l"
				}

			}
, 			{
				"box" : 				{
					"fontname" : "Arial",
					"fontsize" : 12.0,
					"id" : "obj-82",
					"maxclass" : "newobj",
					"numinlets" : 1,
					"numoutlets" : 2,
					"outlettype" : [ "", "" ],
					"patching_rect" : [ 354.0, 342.0, 32.5, 20.0 ],
					"text" : "t l l"
				}

			}
, 			{
				"box" : 				{
					"fontname" : "Arial",
					"fontsize" : 12.0,
					"id" : "obj-81",
					"maxclass" : "newobj",
					"numinlets" : 1,
					"numoutlets" : 2,
					"outlettype" : [ "", "" ],
					"patching_rect" : [ 464.0, 547.0, 32.5, 20.0 ],
					"text" : "t l l"
				}

			}
, 			{
				"box" : 				{
					"fontname" : "Arial",
					"fontsize" : 12.0,
					"id" : "obj-80",
					"maxclass" : "newobj",
					"numinlets" : 1,
					"numoutlets" : 2,
					"outlettype" : [ "", "" ],
					"patching_rect" : [ 773.0, 602.0, 32.5, 20.0 ],
					"text" : "t l l"
				}

			}
, 			{
				"box" : 				{
					"fontname" : "Arial",
					"fontsize" : 12.0,
					"id" : "obj-73",
					"maxclass" : "newobj",
					"numinlets" : 1,
					"numoutlets" : 3,
					"outlettype" : [ "", "int", "" ],
					"patching_rect" : [ 464.0, 651.0, 203.0, 20.0 ],
					"text" : "j264.discover.filter.memberattributes"
				}

			}
, 			{
				"box" : 				{
					"fontname" : "Arial",
					"fontsize" : 12.0,
					"id" : "obj-63",
					"maxclass" : "newobj",
					"numinlets" : 2,
					"numoutlets" : 3,
					"outlettype" : [ "", "int", "" ],
					"patching_rect" : [ 786.5, 717.0, 107.0, 20.0 ],
					"text" : "j264.discover.filter"
				}

			}
, 			{
				"box" : 				{
					"fontname" : "Arial",
					"fontsize" : 12.0,
					"id" : "obj-64",
					"maxclass" : "newobj",
					"numinlets" : 1,
					"numoutlets" : 2,
					"outlettype" : [ "", "bang" ],
					"patching_rect" : [ 786.5, 651.0, 32.5, 20.0 ],
					"text" : "t l b"
				}

			}
, 			{
				"box" : 				{
					"fontname" : "Arial",
					"fontsize" : 12.0,
					"id" : "obj-65",
					"maxclass" : "message",
					"numinlets" : 2,
					"numoutlets" : 1,
					"outlettype" : [ "" ],
					"patching_rect" : [ 799.5, 680.0, 165.0, 18.0 ],
					"text" : "set /member_attributes value"
				}

			}
, 			{
				"box" : 				{
					"fontname" : "Arial",
					"fontsize" : 12.0,
					"id" : "obj-49",
					"maxclass" : "newobj",
					"numinlets" : 1,
					"numoutlets" : 3,
					"outlettype" : [ "", "", "" ],
					"patching_rect" : [ 354.0, 373.0, 46.0, 20.0 ],
					"text" : "t l l l"
				}

			}
, 			{
				"box" : 				{
					"fontname" : "Arial",
					"fontsize" : 12.0,
					"id" : "obj-46",
					"maxclass" : "newobj",
					"numinlets" : 2,
					"numoutlets" : 3,
					"outlettype" : [ "", "int", "" ],
					"patching_rect" : [ 773.0, 481.0, 107.0, 20.0 ],
					"text" : "j264.discover.filter"
				}

			}
, 			{
				"box" : 				{
					"fontname" : "Arial",
					"fontsize" : 12.0,
					"id" : "obj-47",
					"maxclass" : "newobj",
					"numinlets" : 1,
					"numoutlets" : 2,
					"outlettype" : [ "", "bang" ],
					"patching_rect" : [ 773.0, 415.0, 32.5, 20.0 ],
					"text" : "t l b"
				}

			}
, 			{
				"box" : 				{
					"fontname" : "Arial",
					"fontsize" : 12.0,
					"id" : "obj-48",
					"maxclass" : "message",
					"numinlets" : 2,
					"numoutlets" : 1,
					"outlettype" : [ "" ],
					"patching_rect" : [ 787.0, 444.0, 131.0, 18.0 ],
					"text" : "set /parameter_names"
				}

			}
, 			{
				"box" : 				{
					"fontname" : "Arial",
					"fontsize" : 12.0,
					"id" : "obj-43",
					"maxclass" : "newobj",
					"numinlets" : 2,
					"numoutlets" : 3,
					"outlettype" : [ "", "int", "" ],
					"patching_rect" : [ 619.0, 481.0, 107.0, 20.0 ],
					"text" : "j264.discover.filter"
				}

			}
, 			{
				"box" : 				{
					"fontname" : "Arial",
					"fontsize" : 12.0,
					"id" : "obj-44",
					"maxclass" : "newobj",
					"numinlets" : 1,
					"numoutlets" : 2,
					"outlettype" : [ "", "bang" ],
					"patching_rect" : [ 619.0, 415.0, 32.5, 20.0 ],
					"text" : "t l b"
				}

			}
, 			{
				"box" : 				{
					"fontname" : "Arial",
					"fontsize" : 12.0,
					"id" : "obj-45",
					"maxclass" : "message",
					"numinlets" : 2,
					"numoutlets" : 1,
					"outlettype" : [ "" ],
					"patching_rect" : [ 633.0, 444.0, 125.0, 18.0 ],
					"text" : "set /message_names"
				}

			}
, 			{
				"box" : 				{
					"fontname" : "Arial",
					"fontsize" : 12.0,
					"id" : "obj-37",
					"maxclass" : "newobj",
					"numinlets" : 2,
					"numoutlets" : 3,
					"outlettype" : [ "", "int", "" ],
					"patching_rect" : [ 464.0, 481.0, 107.0, 20.0 ],
					"text" : "j264.discover.filter"
				}

			}
, 			{
				"box" : 				{
					"fontname" : "Arial",
					"fontsize" : 12.0,
					"id" : "obj-36",
					"maxclass" : "newobj",
					"numinlets" : 1,
					"numoutlets" : 2,
					"outlettype" : [ "", "bang" ],
					"patching_rect" : [ 464.0, 415.0, 32.5, 20.0 ],
					"text" : "t l b"
				}

			}
, 			{
				"box" : 				{
					"fontname" : "Arial",
					"fontsize" : 12.0,
					"id" : "obj-22",
					"maxclass" : "message",
					"numinlets" : 2,
					"numoutlets" : 1,
					"outlettype" : [ "" ],
					"patching_rect" : [ 478.0, 444.0, 107.0, 18.0 ],
					"text" : "set /return_names"
				}

			}
, 			{
				"box" : 				{
					"fontname" : "Arial",
					"fontsize" : 12.0,
					"id" : "obj-39",
					"maxclass" : "newobj",
					"numinlets" : 1,
					"numoutlets" : 3,
					"outlettype" : [ "", "int", "" ],
					"patching_rect" : [ 354.0, 313.0, 86.0, 20.0 ],
					"text" : "j264.discover"
				}

			}
, 			{
				"box" : 				{
					"fontname" : "Arial",
					"fontsize" : 12.0,
					"id" : "obj-28",
					"maxclass" : "newobj",
					"numinlets" : 2,
					"numoutlets" : 1,
					"outlettype" : [ "int" ],
					"patching_rect" : [ 1079.5, 946.0, 32.5, 20.0 ],
					"text" : "> 1"
				}

			}
, 			{
				"box" : 				{
					"fontname" : "Arial",
					"fontsize" : 12.0,
					"id" : "obj-27",
					"maxclass" : "newobj",
					"numinlets" : 2,
					"numoutlets" : 1,
					"outlettype" : [ "" ],
					"patching_rect" : [ 1069.5, 866.0, 34.0, 20.0 ],
					"text" : "gate"
				}

			}
, 			{
				"box" : 				{
					"fontname" : "Arial",
					"fontsize" : 12.0,
					"id" : "obj-26",
					"maxclass" : "newobj",
					"numinlets" : 1,
					"numoutlets" : 2,
					"outlettype" : [ "bang", "query" ],
					"patching_rect" : [ 1084.5, 742.0, 100.0, 20.0 ],
					"text" : "t b query"
				}

			}
, 			{
				"box" : 				{
					"fontname" : "Arial",
					"fontsize" : 12.0,
					"id" : "obj-25",
					"maxclass" : "newobj",
					"numinlets" : 1,
					"numoutlets" : 1,
					"outlettype" : [ "" ],
					"patching_rect" : [ 1084.5, 778.0, 115.0, 20.0 ],
					"text" : "j264.datetimestamp"
				}

			}
, 			{
				"box" : 				{
					"fontname" : "Arial",
					"fontsize" : 12.0,
					"id" : "obj-59",
					"maxclass" : "number",
					"numinlets" : 1,
					"numoutlets" : 2,
					"outlettype" : [ "int", "bang" ],
					"parameter_enable" : 0,
					"patching_rect" : [ 1079.5, 921.0, 50.0, 20.0 ]
				}

			}
, 			{
				"box" : 				{
					"fontname" : "Arial",
					"fontsize" : 12.0,
					"id" : "obj-21",
					"maxclass" : "newobj",
					"numinlets" : 1,
					"numoutlets" : 3,
					"outlettype" : [ "", "bang", "int" ],
					"patching_rect" : [ 994.5, 896.0, 104.0, 20.0 ],
					"text" : "text"
				}

			}
, 			{
				"box" : 				{
					"fontname" : "Arial",
					"fontsize" : 12.0,
					"id" : "obj-20",
					"maxclass" : "newobj",
					"numinlets" : 1,
					"numoutlets" : 4,
					"outlettype" : [ "query", "cr", "", "tab" ],
					"patching_rect" : [ 994.5, 813.0, 87.0, 20.0 ],
					"text" : "t query cr l tab"
				}

			}
, 			{
				"box" : 				{
					"fontname" : "Arial",
					"fontsize" : 12.0,
					"id" : "obj-19",
					"maxclass" : "newobj",
					"numinlets" : 0,
					"numoutlets" : 1,
					"outlettype" : [ "bang" ],
					"patching_rect" : [ 1084.5, 702.0, 58.0, 20.0 ],
					"text" : "freebang"
				}

			}
, 			{
				"box" : 				{
					"fontname" : "Arial",
					"fontsize" : 12.0,
					"id" : "obj-18",
					"maxclass" : "newobj",
					"numinlets" : 1,
					"numoutlets" : 1,
					"outlettype" : [ "" ],
					"patching_rect" : [ 243.0, 789.0, 92.0, 20.0 ],
					"text" : "j264.timestamp"
				}

			}
, 			{
				"box" : 				{
					"fontname" : "Arial",
					"fontsize" : 12.0,
					"id" : "obj-17",
					"maxclass" : "newobj",
					"numinlets" : 2,
					"numoutlets" : 1,
					"outlettype" : [ "" ],
					"patching_rect" : [ 243.0, 758.0, 34.0, 20.0 ],
					"text" : "gate"
				}

			}
, 			{
				"box" : 				{
					"fontname" : "Arial",
					"fontsize" : 12.0,
					"id" : "obj-5",
					"maxclass" : "newobj",
					"numinlets" : 1,
					"numoutlets" : 2,
					"outlettype" : [ "", "" ],
					"patching_rect" : [ 243.0, 928.0, 32.5, 20.0 ],
					"text" : "t l l"
				}

			}
, 			{
				"box" : 				{
					"fontname" : "Arial",
					"fontsize" : 12.0,
					"id" : "obj-9",
					"maxclass" : "newobj",
					"numinlets" : 1,
					"numoutlets" : 1,
					"outlettype" : [ "" ],
					"patching_rect" : [ 148.0, 873.0, 84.0, 20.0 ],
					"text" : "prepend /max"
				}

			}
, 			{
				"box" : 				{
					"fontname" : "Arial",
					"fontsize" : 12.0,
					"id" : "obj-1",
					"maxclass" : "newobj",
					"numinlets" : 1,
					"numoutlets" : 2,
					"outlettype" : [ "", "" ],
					"patching_rect" : [ 41.0, 19.0, 217.0, 20.0 ],
					"text" : "jcom.receive jcom.remote.module.from"
				}

			}
 ],
		"lines" : [ 			{
				"patchline" : 				{
					"destination" : [ "obj-17", 1 ],
					"disabled" : 0,
					"hidden" : 0,
					"midpoints" : [ 50.5, 582.0, 267.5, 582.0 ],
					"source" : [ "obj-1", 0 ]
				}

			}
, 			{
				"patchline" : 				{
					"destination" : [ "obj-39", 0 ],
					"disabled" : 0,
					"hidden" : 0,
					"source" : [ "obj-10", 0 ]
				}

			}
, 			{
				"patchline" : 				{
					"destination" : [ "obj-34", 0 ],
					"disabled" : 0,
					"hidden" : 0,
					"source" : [ "obj-100", 0 ]
				}

			}
, 			{
				"patchline" : 				{
					"destination" : [ "obj-53", 0 ],
					"disabled" : 0,
					"hidden" : 0,
					"midpoints" : [ 1324.5, 599.0, 1004.0, 599.0 ],
					"source" : [ "obj-100", 1 ]
				}

			}
, 			{
				"patchline" : 				{
					"destination" : [ "obj-90", 0 ],
					"disabled" : 0,
					"hidden" : 0,
					"midpoints" : [ 1338.0, 600.0, 1474.0, 600.0, 1474.0, 711.0, 1388.5, 711.0 ],
					"source" : [ "obj-100", 2 ]
				}

			}
, 			{
				"patchline" : 				{
					"destination" : [ "obj-68", 0 ],
					"disabled" : 0,
					"hidden" : 0,
					"midpoints" : [ 1406.5, 845.0, 1311.0, 845.0 ],
					"source" : [ "obj-101", 0 ]
				}

			}
, 			{
				"patchline" : 				{
					"destination" : [ "obj-74", 0 ],
					"disabled" : 0,
					"hidden" : 0,
					"source" : [ "obj-11", 0 ]
				}

			}
, 			{
				"patchline" : 				{
					"destination" : [ "obj-35", 0 ],
					"disabled" : 0,
					"hidden" : 0,
					"source" : [ "obj-12", 0 ]
				}

			}
, 			{
				"patchline" : 				{
					"destination" : [ "obj-11", 0 ],
					"disabled" : 0,
					"hidden" : 0,
					"source" : [ "obj-14", 0 ]
				}

			}
, 			{
				"patchline" : 				{
					"destination" : [ "obj-54", 0 ],
					"disabled" : 0,
					"hidden" : 0,
					"source" : [ "obj-16", 0 ]
				}

			}
, 			{
				"patchline" : 				{
					"destination" : [ "obj-18", 0 ],
					"disabled" : 0,
					"hidden" : 0,
					"midpoints" : [ 252.5, 781.0, 252.5, 781.0 ],
					"source" : [ "obj-17", 0 ]
				}

			}
, 			{
				"patchline" : 				{
					"destination" : [ "obj-9", 0 ],
					"disabled" : 0,
					"hidden" : 0,
					"midpoints" : [ 252.5, 821.0, 157.5, 821.0 ],
					"source" : [ "obj-18", 0 ]
				}

			}
, 			{
				"patchline" : 				{
					"destination" : [ "obj-26", 0 ],
					"disabled" : 0,
					"hidden" : 0,
					"source" : [ "obj-19", 0 ]
				}

			}
, 			{
				"patchline" : 				{
					"destination" : [ "obj-17", 0 ],
					"disabled" : 0,
					"hidden" : 0,
					"midpoints" : [ 398.5, 79.0, 252.5, 79.0 ],
					"source" : [ "obj-2", 1 ]
				}

			}
, 			{
				"patchline" : 				{
					"destination" : [ "obj-4", 0 ],
					"disabled" : 0,
					"hidden" : 0,
					"source" : [ "obj-2", 0 ]
				}

			}
, 			{
				"patchline" : 				{
					"destination" : [ "obj-21", 0 ],
					"disabled" : 0,
					"hidden" : 0,
					"midpoints" : [ 1072.0, 847.0, 1004.0, 847.0 ],
					"source" : [ "obj-20", 3 ]
				}

			}
, 			{
				"patchline" : 				{
					"destination" : [ "obj-21", 0 ],
					"disabled" : 0,
					"hidden" : 0,
					"midpoints" : [ 1049.333374, 843.0, 1004.0, 843.0 ],
					"source" : [ "obj-20", 2 ]
				}

			}
, 			{
				"patchline" : 				{
					"destination" : [ "obj-21", 0 ],
					"disabled" : 0,
					"hidden" : 0,
					"midpoints" : [ 1026.666626, 837.0, 1004.0, 837.0 ],
					"source" : [ "obj-20", 1 ]
				}

			}
, 			{
				"patchline" : 				{
					"destination" : [ "obj-21", 0 ],
					"disabled" : 0,
					"hidden" : 0,
					"source" : [ "obj-20", 0 ]
				}

			}
, 			{
				"patchline" : 				{
					"destination" : [ "obj-59", 0 ],
					"disabled" : 0,
					"hidden" : 0,
					"source" : [ "obj-21", 2 ]
				}

			}
, 			{
				"patchline" : 				{
					"destination" : [ "obj-37", 1 ],
					"disabled" : 0,
					"hidden" : 0,
					"midpoints" : [ 487.5, 470.0, 561.5, 470.0 ],
					"source" : [ "obj-22", 0 ]
				}

			}
, 			{
				"patchline" : 				{
					"destination" : [ "obj-40", 0 ],
					"disabled" : 0,
					"hidden" : 0,
					"source" : [ "obj-25", 0 ]
				}

			}
, 			{
				"patchline" : 				{
					"destination" : [ "obj-21", 0 ],
					"disabled" : 0,
					"hidden" : 0,
					"midpoints" : [ 1175.0, 771.0, 1276.0, 771.0, 1276.0, 854.0, 1004.0, 854.0 ],
					"source" : [ "obj-26", 1 ]
				}

			}
, 			{
				"patchline" : 				{
					"destination" : [ "obj-25", 0 ],
					"disabled" : 0,
					"hidden" : 0,
					"source" : [ "obj-26", 0 ]
				}

			}
, 			{
				"patchline" : 				{
					"destination" : [ "obj-21", 0 ],
					"disabled" : 0,
					"hidden" : 0,
					"midpoints" : [ 1079.0, 891.0, 1004.0, 891.0 ],
					"source" : [ "obj-27", 0 ]
				}

			}
, 			{
				"patchline" : 				{
					"destination" : [ "obj-27", 0 ],
					"disabled" : 0,
					"hidden" : 0,
					"midpoints" : [ 1089.0, 971.0, 1140.5, 971.0, 1140.5, 861.0, 1079.0, 861.0 ],
					"source" : [ "obj-28", 0 ]
				}

			}
, 			{
				"patchline" : 				{
					"destination" : [ "obj-2", 0 ],
					"disabled" : 0,
					"hidden" : 0,
					"source" : [ "obj-3", 0 ]
				}

			}
, 			{
				"patchline" : 				{
					"destination" : [ "obj-11", 1 ],
					"disabled" : 0,
					"hidden" : 0,
					"midpoints" : [ 541.5, 208.0, 483.0, 208.0 ],
					"source" : [ "obj-32", 0 ]
				}

			}
, 			{
				"patchline" : 				{
					"destination" : [ "obj-7", 0 ],
					"disabled" : 0,
					"hidden" : 0,
					"midpoints" : [ 556.5, 90.0, 468.0, 90.0 ],
					"source" : [ "obj-32", 1 ]
				}

			}
, 			{
				"patchline" : 				{
					"destination" : [ "obj-69", 0 ],
					"disabled" : 0,
					"hidden" : 0,
					"midpoints" : [ 1311.0, 675.0, 1311.0, 675.0 ],
					"source" : [ "obj-33", 0 ]
				}

			}
, 			{
				"patchline" : 				{
					"destination" : [ "obj-33", 0 ],
					"disabled" : 0,
					"hidden" : 0,
					"source" : [ "obj-34", 0 ]
				}

			}
, 			{
				"patchline" : 				{
					"destination" : [ "obj-11", 1 ],
					"disabled" : 0,
					"hidden" : 0,
					"midpoints" : [ 453.0, 77.0, 535.0, 77.0, 535.0, 201.0, 483.0, 201.0 ],
					"source" : [ "obj-35", 0 ]
				}

			}
, 			{
				"patchline" : 				{
					"destination" : [ "obj-7", 0 ],
					"disabled" : 0,
					"hidden" : 0,
					"source" : [ "obj-35", 1 ]
				}

			}
, 			{
				"patchline" : 				{
					"destination" : [ "obj-22", 0 ],
					"disabled" : 0,
					"hidden" : 0,
					"midpoints" : [ 487.0, 440.0, 487.5, 440.0 ],
					"source" : [ "obj-36", 1 ]
				}

			}
, 			{
				"patchline" : 				{
					"destination" : [ "obj-37", 0 ],
					"disabled" : 0,
					"hidden" : 0,
					"source" : [ "obj-36", 0 ]
				}

			}
, 			{
				"patchline" : 				{
					"destination" : [ "obj-17", 0 ],
					"disabled" : 0,
					"hidden" : 0,
					"midpoints" : [ 517.5, 510.0, 252.5, 510.0 ],
					"source" : [ "obj-37", 1 ]
				}

			}
, 			{
				"patchline" : 				{
					"destination" : [ "obj-81", 0 ],
					"disabled" : 0,
					"hidden" : 0,
					"source" : [ "obj-37", 0 ]
				}

			}
, 			{
				"patchline" : 				{
					"destination" : [ "obj-17", 0 ],
					"disabled" : 0,
					"hidden" : 0,
					"midpoints" : [ 397.0, 337.0, 252.5, 337.0 ],
					"source" : [ "obj-39", 1 ]
				}

			}
, 			{
				"patchline" : 				{
					"destination" : [ "obj-82", 0 ],
					"disabled" : 0,
					"hidden" : 0,
					"source" : [ "obj-39", 0 ]
				}

			}
, 			{
				"patchline" : 				{
					"destination" : [ "obj-71", 0 ],
					"disabled" : 0,
					"hidden" : 0,
					"source" : [ "obj-4", 0 ]
				}

			}
, 			{
				"patchline" : 				{
					"destination" : [ "obj-27", 1 ],
					"disabled" : 0,
					"hidden" : 0,
					"source" : [ "obj-40", 0 ]
				}

			}
, 			{
				"patchline" : 				{
					"destination" : [ "obj-26", 0 ],
					"disabled" : 0,
					"hidden" : 0,
					"midpoints" : [ 1168.0, 729.0, 1094.0, 729.0 ],
					"source" : [ "obj-41", 0 ]
				}

			}
, 			{
				"patchline" : 				{
					"destination" : [ "obj-14", 0 ],
					"disabled" : 0,
					"hidden" : 0,
					"source" : [ "obj-42", 0 ]
				}

			}
, 			{
				"patchline" : 				{
					"destination" : [ "obj-75", 0 ],
					"disabled" : 0,
					"hidden" : 0,
					"source" : [ "obj-42", 0 ]
				}

			}
, 			{
				"patchline" : 				{
					"destination" : [ "obj-17", 0 ],
					"disabled" : 0,
					"hidden" : 0,
					"midpoints" : [ 672.5, 517.0, 252.5, 517.0 ],
					"source" : [ "obj-43", 1 ]
				}

			}
, 			{
				"patchline" : 				{
					"destination" : [ "obj-83", 0 ],
					"disabled" : 0,
					"hidden" : 0,
					"source" : [ "obj-43", 0 ]
				}

			}
, 			{
				"patchline" : 				{
					"destination" : [ "obj-43", 0 ],
					"disabled" : 0,
					"hidden" : 0,
					"source" : [ "obj-44", 0 ]
				}

			}
, 			{
				"patchline" : 				{
					"destination" : [ "obj-45", 0 ],
					"disabled" : 0,
					"hidden" : 0,
					"midpoints" : [ 642.0, 440.0, 642.5, 440.0 ],
					"source" : [ "obj-44", 1 ]
				}

			}
, 			{
				"patchline" : 				{
					"destination" : [ "obj-43", 1 ],
					"disabled" : 0,
					"hidden" : 0,
					"midpoints" : [ 642.5, 470.0, 716.5, 470.0 ],
					"source" : [ "obj-45", 0 ]
				}

			}
, 			{
				"patchline" : 				{
					"destination" : [ "obj-17", 0 ],
					"disabled" : 0,
					"hidden" : 0,
					"midpoints" : [ 826.5, 525.0, 252.5, 525.0 ],
					"source" : [ "obj-46", 1 ]
				}

			}
, 			{
				"patchline" : 				{
					"destination" : [ "obj-84", 0 ],
					"disabled" : 0,
					"hidden" : 0,
					"source" : [ "obj-46", 0 ]
				}

			}
, 			{
				"patchline" : 				{
					"destination" : [ "obj-46", 0 ],
					"disabled" : 0,
					"hidden" : 0,
					"source" : [ "obj-47", 0 ]
				}

			}
, 			{
				"patchline" : 				{
					"destination" : [ "obj-48", 0 ],
					"disabled" : 0,
					"hidden" : 0,
					"midpoints" : [ 796.0, 440.0, 796.5, 440.0 ],
					"source" : [ "obj-47", 1 ]
				}

			}
, 			{
				"patchline" : 				{
					"destination" : [ "obj-46", 1 ],
					"disabled" : 0,
					"hidden" : 0,
					"midpoints" : [ 796.5, 470.0, 870.5, 470.0 ],
					"source" : [ "obj-48", 0 ]
				}

			}
, 			{
				"patchline" : 				{
					"destination" : [ "obj-36", 0 ],
					"disabled" : 0,
					"hidden" : 0,
					"midpoints" : [ 363.5, 409.0, 473.5, 409.0 ],
					"source" : [ "obj-49", 0 ]
				}

			}
, 			{
				"patchline" : 				{
					"destination" : [ "obj-44", 0 ],
					"disabled" : 0,
					"hidden" : 0,
					"midpoints" : [ 377.0, 403.0, 628.5, 403.0 ],
					"source" : [ "obj-49", 1 ]
				}

			}
, 			{
				"patchline" : 				{
					"destination" : [ "obj-47", 0 ],
					"disabled" : 0,
					"hidden" : 0,
					"midpoints" : [ 390.5, 397.0, 782.5, 397.0 ],
					"source" : [ "obj-49", 2 ]
				}

			}
, 			{
				"patchline" : 				{
					"destination" : [ "obj-20", 0 ],
					"disabled" : 0,
					"hidden" : 0,
					"midpoints" : [ 252.5, 953.0, 885.0, 953.0, 885.0, 794.0, 1004.0, 794.0 ],
					"source" : [ "obj-5", 0 ]
				}

			}
, 			{
				"patchline" : 				{
					"destination" : [ "obj-21", 0 ],
					"disabled" : 0,
					"hidden" : 0,
					"midpoints" : [ 1067.0, 769.0, 951.0, 769.0, 951.0, 856.0, 1004.0, 856.0 ],
					"source" : [ "obj-53", 2 ]
				}

			}
, 			{
				"patchline" : 				{
					"destination" : [ "obj-21", 0 ],
					"disabled" : 0,
					"hidden" : 0,
					"midpoints" : [ 1035.5, 763.0, 938.0, 763.0, 938.0, 861.0, 1004.0, 861.0 ],
					"source" : [ "obj-53", 1 ]
				}

			}
, 			{
				"patchline" : 				{
					"destination" : [ "obj-21", 0 ],
					"disabled" : 0,
					"hidden" : 0,
					"midpoints" : [ 1004.0, 758.0, 926.0, 758.0, 926.0, 866.0, 1004.0, 866.0 ],
					"source" : [ "obj-53", 0 ]
				}

			}
, 			{
				"patchline" : 				{
					"destination" : [ "obj-8", 0 ],
					"disabled" : 0,
					"hidden" : 0,
					"source" : [ "obj-54", 0 ]
				}

			}
, 			{
				"patchline" : 				{
					"destination" : [ "obj-21", 0 ],
					"disabled" : 0,
					"hidden" : 0,
					"midpoints" : [ 1034.0, 888.0, 1004.0, 888.0 ],
					"source" : [ "obj-55", 0 ]
				}

			}
, 			{
				"patchline" : 				{
					"destination" : [ "obj-68", 0 ],
					"disabled" : 0,
					"hidden" : 0,
					"midpoints" : [ 1351.0, 881.0, 1311.0, 881.0 ],
					"source" : [ "obj-56", 0 ]
				}

			}
, 			{
				"patchline" : 				{
					"destination" : [ "obj-62", 0 ],
					"disabled" : 0,
					"hidden" : 0,
					"midpoints" : [ 1584.0, 730.0, 1510.0, 730.0 ],
					"source" : [ "obj-57", 0 ]
				}

			}
, 			{
				"patchline" : 				{
					"destination" : [ "obj-61", 1 ],
					"disabled" : 0,
					"hidden" : 0,
					"source" : [ "obj-58", 0 ]
				}

			}
, 			{
				"patchline" : 				{
					"destination" : [ "obj-28", 0 ],
					"disabled" : 0,
					"hidden" : 0,
					"source" : [ "obj-59", 0 ]
				}

			}
, 			{
				"patchline" : 				{
					"destination" : [ "obj-32", 0 ],
					"disabled" : 0,
					"hidden" : 0,
					"source" : [ "obj-6", 0 ]
				}

			}
, 			{
				"patchline" : 				{
					"destination" : [ "obj-61", 0 ],
					"disabled" : 0,
					"hidden" : 0,
					"midpoints" : [ 1471.0, 968.0, 1522.5, 968.0, 1522.5, 858.0, 1495.0, 858.0 ],
					"source" : [ "obj-60", 0 ]
				}

			}
, 			{
				"patchline" : 				{
					"destination" : [ "obj-68", 0 ],
					"disabled" : 0,
					"hidden" : 0,
					"midpoints" : [ 1495.0, 889.0, 1311.0, 889.0 ],
					"source" : [ "obj-61", 0 ]
				}

			}
, 			{
				"patchline" : 				{
					"destination" : [ "obj-66", 0 ],
					"disabled" : 0,
					"hidden" : 0,
					"source" : [ "obj-62", 0 ]
				}

			}
, 			{
				"patchline" : 				{
					"destination" : [ "obj-68", 0 ],
					"disabled" : 0,
					"hidden" : 0,
					"midpoints" : [ 1591.0, 768.0, 1672.0, 768.0, 1672.0, 853.0, 1311.0, 853.0 ],
					"source" : [ "obj-62", 1 ]
				}

			}
, 			{
				"patchline" : 				{
					"destination" : [ "obj-17", 0 ],
					"disabled" : 0,
					"hidden" : 0,
					"midpoints" : [ 840.0, 743.0, 252.5, 743.0 ],
					"source" : [ "obj-63", 1 ]
				}

			}
, 			{
				"patchline" : 				{
					"destination" : [ "obj-5", 0 ],
					"disabled" : 0,
					"hidden" : 0,
					"midpoints" : [ 796.0, 900.0, 252.5, 900.0 ],
					"source" : [ "obj-63", 0 ]
				}

			}
, 			{
				"patchline" : 				{
					"destination" : [ "obj-63", 0 ],
					"disabled" : 0,
					"hidden" : 0,
					"source" : [ "obj-64", 0 ]
				}

			}
, 			{
				"patchline" : 				{
					"destination" : [ "obj-65", 0 ],
					"disabled" : 0,
					"hidden" : 0,
					"midpoints" : [ 809.5, 676.0, 809.0, 676.0 ],
					"source" : [ "obj-64", 1 ]
				}

			}
, 			{
				"patchline" : 				{
					"destination" : [ "obj-63", 1 ],
					"disabled" : 0,
					"hidden" : 0,
					"midpoints" : [ 809.0, 706.0, 884.0, 706.0 ],
					"source" : [ "obj-65", 0 ]
				}

			}
, 			{
				"patchline" : 				{
					"destination" : [ "obj-58", 0 ],
					"disabled" : 0,
					"hidden" : 0,
					"source" : [ "obj-66", 0 ]
				}

			}
, 			{
				"patchline" : 				{
					"destination" : [ "obj-60", 0 ],
					"disabled" : 0,
					"hidden" : 0,
					"source" : [ "obj-67", 0 ]
				}

			}
, 			{
				"patchline" : 				{
					"destination" : [ "obj-67", 0 ],
					"disabled" : 0,
					"hidden" : 0,
					"source" : [ "obj-68", 2 ]
				}

			}
, 			{
				"patchline" : 				{
					"destination" : [ "obj-68", 0 ],
					"disabled" : 0,
					"hidden" : 0,
					"midpoints" : [ 1345.0, 828.0, 1311.0, 828.0 ],
					"source" : [ "obj-69", 1 ]
				}

			}
, 			{
				"patchline" : 				{
					"destination" : [ "obj-68", 0 ],
					"disabled" : 0,
					"hidden" : 0,
					"source" : [ "obj-69", 0 ]
				}

			}
, 			{
				"patchline" : 				{
					"destination" : [ "obj-42", 0 ],
					"disabled" : 0,
					"hidden" : 0,
					"source" : [ "obj-7", 0 ]
				}

			}
, 			{
				"patchline" : 				{
					"destination" : [ "obj-62", 0 ],
					"disabled" : 0,
					"hidden" : 0,
					"source" : [ "obj-70", 0 ]
				}

			}
, 			{
				"patchline" : 				{
					"destination" : [ "obj-11", 1 ],
					"disabled" : 0,
					"hidden" : 0,
					"midpoints" : [ 363.5, 205.0, 483.0, 205.0 ],
					"source" : [ "obj-71", 0 ]
				}

			}
, 			{
				"patchline" : 				{
					"destination" : [ "obj-42", 0 ],
					"disabled" : 0,
					"hidden" : 0,
					"midpoints" : [ 378.5, 144.0, 468.0, 144.0 ],
					"source" : [ "obj-71", 1 ]
				}

			}
, 			{
				"patchline" : 				{
					"destination" : [ "obj-8", 1 ],
					"disabled" : 0,
					"hidden" : 0,
					"source" : [ "obj-72", 0 ]
				}

			}
, 			{
				"patchline" : 				{
					"destination" : [ "obj-17", 0 ],
					"disabled" : 0,
					"hidden" : 0,
					"midpoints" : [ 565.5, 735.0, 252.5, 735.0 ],
					"source" : [ "obj-73", 1 ]
				}

			}
, 			{
				"patchline" : 				{
					"destination" : [ "obj-5", 0 ],
					"disabled" : 0,
					"hidden" : 0,
					"midpoints" : [ 473.5, 888.0, 252.5, 888.0 ],
					"source" : [ "obj-73", 0 ]
				}

			}
, 			{
				"patchline" : 				{
					"destination" : [ "obj-10", 0 ],
					"disabled" : 0,
					"hidden" : 0,
					"midpoints" : [ 468.0, 275.0, 363.5, 275.0 ],
					"source" : [ "obj-74", 0 ]
				}

			}
, 			{
				"patchline" : 				{
					"destination" : [ "obj-21", 0 ],
					"disabled" : 0,
					"hidden" : 0,
					"midpoints" : [ 574.0, 269.0, 980.0, 269.0, 980.0, 881.0, 1004.0, 881.0 ],
					"source" : [ "obj-74", 2 ]
				}

			}
, 			{
				"patchline" : 				{
					"destination" : [ "obj-21", 0 ],
					"disabled" : 0,
					"hidden" : 0,
					"midpoints" : [ 521.0, 276.0, 972.0, 276.0, 972.0, 887.0, 1004.0, 887.0 ],
					"source" : [ "obj-74", 1 ]
				}

			}
, 			{
				"patchline" : 				{
					"destination" : [ "obj-7", 0 ],
					"disabled" : 0,
					"hidden" : 0,
					"midpoints" : [ 617.0, 101.0, 468.0, 101.0 ],
					"source" : [ "obj-78", 0 ]
				}

			}
, 			{
				"patchline" : 				{
					"destination" : [ "obj-100", 0 ],
					"disabled" : 0,
					"hidden" : 0,
					"source" : [ "obj-8", 0 ]
				}

			}
, 			{
				"patchline" : 				{
					"destination" : [ "obj-30", 0 ],
					"disabled" : 0,
					"hidden" : 0,
					"midpoints" : [ 1311.0, 558.0, 1285.0, 558.0 ],
					"source" : [ "obj-8", 0 ]
				}

			}
, 			{
				"patchline" : 				{
					"destination" : [ "obj-64", 0 ],
					"disabled" : 0,
					"hidden" : 0,
					"source" : [ "obj-80", 1 ]
				}

			}
, 			{
				"patchline" : 				{
					"destination" : [ "obj-73", 0 ],
					"disabled" : 0,
					"hidden" : 0,
					"midpoints" : [ 782.5, 642.0, 473.5, 642.0 ],
					"source" : [ "obj-80", 0 ]
				}

			}
, 			{
				"patchline" : 				{
					"destination" : [ "obj-5", 0 ],
					"disabled" : 0,
					"hidden" : 0,
					"midpoints" : [ 487.0, 579.0, 356.0, 579.0, 356.0, 862.0, 252.5, 862.0 ],
					"source" : [ "obj-81", 1 ]
				}

			}
, 			{
				"patchline" : 				{
					"destination" : [ "obj-73", 0 ],
					"disabled" : 0,
					"hidden" : 0,
					"source" : [ "obj-81", 0 ]
				}

			}
, 			{
				"patchline" : 				{
					"destination" : [ "obj-49", 0 ],
					"disabled" : 0,
					"hidden" : 0,
					"source" : [ "obj-82", 0 ]
				}

			}
, 			{
				"patchline" : 				{
					"destination" : [ "obj-5", 0 ],
					"disabled" : 0,
					"hidden" : 0,
					"midpoints" : [ 377.0, 368.0, 339.0, 368.0, 339.0, 846.0, 252.5, 846.0 ],
					"source" : [ "obj-82", 1 ]
				}

			}
, 			{
				"patchline" : 				{
					"destination" : [ "obj-5", 0 ],
					"disabled" : 0,
					"hidden" : 0,
					"midpoints" : [ 642.0, 586.0, 363.0, 586.0, 363.0, 868.0, 252.5, 868.0 ],
					"source" : [ "obj-83", 1 ]
				}

			}
, 			{
				"patchline" : 				{
					"destination" : [ "obj-73", 0 ],
					"disabled" : 0,
					"hidden" : 0,
					"midpoints" : [ 628.5, 634.0, 473.5, 634.0 ],
					"source" : [ "obj-83", 0 ]
				}

			}
, 			{
				"patchline" : 				{
					"destination" : [ "obj-5", 0 ],
					"disabled" : 0,
					"hidden" : 0,
					"midpoints" : [ 796.0, 592.0, 370.0, 592.0, 370.0, 874.0, 252.5, 874.0 ],
					"source" : [ "obj-84", 1 ]
				}

			}
, 			{
				"patchline" : 				{
					"destination" : [ "obj-80", 0 ],
					"disabled" : 0,
					"hidden" : 0,
					"source" : [ "obj-84", 0 ]
				}

			}
, 			{
				"patchline" : 				{
					"destination" : [ "obj-5", 0 ],
					"disabled" : 0,
					"hidden" : 0,
					"midpoints" : [ 157.5, 910.0, 252.5, 910.0 ],
					"source" : [ "obj-9", 0 ]
				}

			}
, 			{
				"patchline" : 				{
					"destination" : [ "obj-68", 0 ],
					"disabled" : 0,
					"hidden" : 0,
					"midpoints" : [ 1388.5, 839.0, 1311.0, 839.0 ],
					"source" : [ "obj-90", 0 ]
				}

			}
, 			{
				"patchline" : 				{
					"destination" : [ "obj-95", 0 ],
					"disabled" : 0,
					"hidden" : 0,
					"source" : [ "obj-90", 1 ]
				}

			}
, 			{
				"patchline" : 				{
					"destination" : [ "obj-101", 0 ],
					"disabled" : 0,
					"hidden" : 0,
					"source" : [ "obj-95", 0 ]
				}

			}
 ],
		"dependency_cache" : [ 			{
				"name" : "j264.timestamp.maxpat",
				"bootpath" : "/Users/czhuang/Dropbox/j264-objects-workcopy/abstractions/utility/j264.timestamp",
				"patcherrelativepath" : "../j264.timestamp",
				"type" : "JSON",
				"implicit" : 1
			}
, 			{
				"name" : "j264.datetimestamp.maxpat",
				"bootpath" : "/Users/czhuang/Dropbox/j264-objects-workcopy/abstractions/utility/j264.datetimestamp",
				"patcherrelativepath" : "../j264.datetimestamp",
				"type" : "JSON",
				"implicit" : 1
			}
, 			{
				"name" : "j264.discover.maxpat",
				"bootpath" : "/Users/czhuang/Dropbox/j264-objects-workcopy/abstractions/utility/j264.discover",
				"patcherrelativepath" : "../j264.discover",
				"type" : "JSON",
				"implicit" : 1
			}
, 			{
				"name" : "jcom.getModuleNames.maxpat",
				"bootpath" : "/Applications/Max6/Cycling '74/Jamoma/library/components/getModuleNames",
				"patcherrelativepath" : "../../../../../../../Applications/Max6/Cycling '74/Jamoma/library/components/getModuleNames",
				"type" : "JSON",
				"implicit" : 1
			}
, 			{
				"name" : "jcom.getMessageNames.maxpat",
				"bootpath" : "/Applications/Max6/Cycling '74/Jamoma/library/components/getMessageNames",
				"patcherrelativepath" : "../../../../../../../Applications/Max6/Cycling '74/Jamoma/library/components/getMessageNames",
				"type" : "JSON",
				"implicit" : 1
			}
, 			{
				"name" : "jcom.getParameterNames.maxpat",
				"bootpath" : "/Applications/Max6/Cycling '74/Jamoma/library/components/getParameterNames",
				"patcherrelativepath" : "../../../../../../../Applications/Max6/Cycling '74/Jamoma/library/components/getParameterNames",
				"type" : "JSON",
				"implicit" : 1
			}
, 			{
				"name" : "jcom.getReturnNames.maxpat",
				"bootpath" : "/Applications/Max6/Cycling '74/Jamoma/library/components/getReturnNames",
				"patcherrelativepath" : "../../../../../../../Applications/Max6/Cycling '74/Jamoma/library/components/getReturnNames",
				"type" : "JSON",
				"implicit" : 1
			}
, 			{
				"name" : "jcom.getOneAttribute.maxpat",
				"bootpath" : "/Applications/Max6/Cycling '74/Jamoma/library/components/getOneAttribute",
				"patcherrelativepath" : "../../../../../../../Applications/Max6/Cycling '74/Jamoma/library/components/getOneAttribute",
				"type" : "JSON",
				"implicit" : 1
			}
, 			{
				"name" : "j264.discover.filter.maxpat",
				"bootpath" : "/Users/czhuang/Dropbox/j264-objects-workcopy/abstractions/utility/j264.discover",
				"patcherrelativepath" : "../j264.discover",
				"type" : "JSON",
				"implicit" : 1
			}
, 			{
				"name" : "j264.discover.filter.memberattributes.maxpat",
				"bootpath" : "/Users/czhuang/Dropbox/j264-objects-workcopy/abstractions/utility/j264.discover",
				"patcherrelativepath" : "../j264.discover",
				"type" : "JSON",
				"implicit" : 1
			}
, 			{
				"name" : "j264.get_names_of_modules.maxpat",
				"bootpath" : "/Users/czhuang/Dropbox/j264-objects-workcopy/abstractions/utility/j264.get_names_of_modules",
				"patcherrelativepath" : "../j264.get_names_of_modules",
				"type" : "JSON",
				"implicit" : 1
			}
, 			{
				"name" : "j264.get_parameter_values.maxpat",
				"bootpath" : "/Users/czhuang/Dropbox/j264-objects-workcopy/abstractions/utility/j264.get_parameter_values",
				"patcherrelativepath" : "../j264.get_parameter_values",
				"type" : "JSON",
				"implicit" : 1
			}
, 			{
				"name" : "jcom.loader.mxo",
				"type" : "iLaX"
			}
, 			{
				"name" : "jcom.oscroute.mxo",
				"type" : "iLaX"
			}
, 			{
				"name" : "jcom.loader.mxo",
				"type" : "iLaX"
			}
 ]
	}

}
