{
	"patcher" : 	{
		"fileversion" : 1,
		"appversion" : 		{
			"major" : 5,
			"minor" : 1,
			"revision" : 9
		}
,
		"rect" : [ 10.0, 200.0, 125.0, 45.0 ],
		"bgcolor" : [ 1.0, 1.0, 1.0, 0.0 ],
		"bglocked" : 0,
		"defrect" : [ 4.0, 44.0, 1508.0, 962.0 ],
		"openrect" : [ 0.0, 0.0, 0.0, 0.0 ],
		"openinpresentation" : 1,
		"default_fontsize" : 12.0,
		"default_fontface" : 0,
		"default_fontname" : "Arial",
		"gridonopen" : 0,
		"gridsize" : [ 5.0, 5.0 ],
		"gridsnaponopen" : 0,
		"toolbarvisible" : 1,
		"boxanimatetime" : 200,
		"imprint" : 0,
		"enablehscroll" : 1,
		"enablevscroll" : 1,
		"devicewidth" : 0.0,
		"boxes" : [ 			{
				"box" : 				{
					"fontname" : "Arial",
					"fontsize" : 12.0,
					"id" : "obj-31",
					"maxclass" : "newobj",
					"numinlets" : 0,
					"numoutlets" : 1,
					"outlettype" : [ "" ],
					"patching_rect" : [ 2010.0, 150.0, 85.0, 20.0 ],
					"presentation_rect" : [ 2012.0, 150.0, 0.0, 0.0 ],
					"text" : "r #0-control"
				}

			}
, 			{
				"box" : 				{
					"fontname" : "Arial",
					"fontsize" : 12.0,
					"id" : "obj-30",
					"maxclass" : "newobj",
					"numinlets" : 0,
					"numoutlets" : 1,
					"outlettype" : [ "" ],
					"patching_rect" : [ 1750.0, 150.0, 85.0, 20.0 ],
					"presentation_rect" : [ 1751.0, 151.0, 0.0, 0.0 ],
					"text" : "r #0-control"
				}

			}
, 			{
				"box" : 				{
					"fontname" : "Arial",
					"fontsize" : 12.0,
					"id" : "obj-25",
					"maxclass" : "newobj",
					"numinlets" : 0,
					"numoutlets" : 1,
					"outlettype" : [ "" ],
					"patching_rect" : [ 1490.0, 150.0, 85.0, 20.0 ],
					"presentation_rect" : [ 1492.0, 151.0, 0.0, 0.0 ],
					"text" : "r #0-control"
				}

			}
, 			{
				"box" : 				{
					"fontname" : "Arial",
					"fontsize" : 12.0,
					"id" : "obj-24",
					"maxclass" : "newobj",
					"numinlets" : 0,
					"numoutlets" : 1,
					"outlettype" : [ "" ],
					"patching_rect" : [ 1230.0, 150.0, 85.0, 20.0 ],
					"presentation_rect" : [ 1231.0, 149.0, 0.0, 0.0 ],
					"text" : "r #0-control"
				}

			}
, 			{
				"box" : 				{
					"fontname" : "Arial",
					"fontsize" : 12.0,
					"id" : "obj-23",
					"maxclass" : "newobj",
					"numinlets" : 1,
					"numoutlets" : 0,
					"patching_rect" : [ 10.0, 60.0, 87.0, 20.0 ],
					"text" : "s #0-control"
				}

			}
, 			{
				"box" : 				{
					"args" : [ "GAIN.2", "@rect", 64.0, 45.0 ],
					"id" : "obj-19",
					"maxclass" : "bpatcher",
					"name" : "j264.ui.multislider.maxpat",
					"numinlets" : 1,
					"numoutlets" : 1,
					"outlettype" : [ "" ],
					"patching_rect" : [ 925.0, 360.0, 80.0, 60.0 ],
					"presentation" : 1,
					"presentation_rect" : [ 216.0, 45.0, 64.0, 45.0 ]
				}

			}
, 			{
				"box" : 				{
					"args" : [ "GAIN.1", "@rect", 64.0, 45.0 ],
					"id" : "obj-21",
					"maxclass" : "bpatcher",
					"name" : "j264.ui.multislider.maxpat",
					"numinlets" : 1,
					"numoutlets" : 1,
					"outlettype" : [ "" ],
					"patching_rect" : [ 620.0, 360.0, 80.0, 60.0 ],
					"presentation" : 1,
					"presentation_rect" : [ 148.0, 45.0, 64.0, 45.0 ]
				}

			}
, 			{
				"box" : 				{
					"args" : [ "DELAY.2", "@rect", 64.0, 45.0 ],
					"id" : "obj-18",
					"maxclass" : "bpatcher",
					"name" : "j264.ui.multislider.maxpat",
					"numinlets" : 1,
					"numoutlets" : 1,
					"outlettype" : [ "" ],
					"patching_rect" : [ 315.0, 360.0, 80.0, 60.0 ],
					"presentation" : 1,
					"presentation_rect" : [ 78.0, 45.0, 64.0, 45.0 ]
				}

			}
, 			{
				"box" : 				{
					"args" : [ "DELAY.1", "@rect", 64.0, 45.0 ],
					"id" : "obj-16",
					"maxclass" : "bpatcher",
					"name" : "j264.ui.multislider.maxpat",
					"numinlets" : 1,
					"numoutlets" : 1,
					"outlettype" : [ "" ],
					"patching_rect" : [ 10.0, 360.0, 80.0, 60.0 ],
					"presentation" : 1,
					"presentation_rect" : [ 10.0, 45.0, 64.0, 45.0 ]
				}

			}
, 			{
				"box" : 				{
					"fontname" : "Arial",
					"fontsize" : 12.0,
					"id" : "obj-15",
					"maxclass" : "newobj",
					"numinlets" : 0,
					"numoutlets" : 1,
					"outlettype" : [ "" ],
					"patching_rect" : [ 620.0, 150.0, 85.0, 20.0 ],
					"text" : "r #0-control"
				}

			}
, 			{
				"box" : 				{
					"fontname" : "Arial",
					"fontsize" : 12.0,
					"id" : "obj-14",
					"maxclass" : "newobj",
					"numinlets" : 0,
					"numoutlets" : 1,
					"outlettype" : [ "" ],
					"patching_rect" : [ 925.0, 150.0, 85.0, 20.0 ],
					"text" : "r #0-control"
				}

			}
, 			{
				"box" : 				{
					"fontname" : "Arial",
					"fontsize" : 12.0,
					"id" : "obj-13",
					"maxclass" : "newobj",
					"numinlets" : 0,
					"numoutlets" : 1,
					"outlettype" : [ "" ],
					"patching_rect" : [ 315.0, 150.0, 85.0, 20.0 ],
					"text" : "r #0-control"
				}

			}
, 			{
				"box" : 				{
					"fontname" : "Arial",
					"fontsize" : 12.0,
					"id" : "obj-12",
					"maxclass" : "newobj",
					"numinlets" : 0,
					"numoutlets" : 1,
					"outlettype" : [ "" ],
					"patching_rect" : [ 10.0, 150.0, 85.0, 20.0 ],
					"text" : "r #0-control"
				}

			}
, 			{
				"box" : 				{
					"fontname" : "Arial",
					"fontsize" : 12.0,
					"id" : "obj-81",
					"maxclass" : "newobj",
					"numinlets" : 1,
					"numoutlets" : 3,
					"outlettype" : [ "/init", "", "" ],
					"patching_rect" : [ 10.0, 35.0, 208.0, 20.0 ],
					"text" : "j264.common.parambp 1x1"
				}

			}
, 			{
				"box" : 				{
					"fontname" : "Arial",
					"fontsize" : 12.0,
					"id" : "obj-43",
					"maxclass" : "newobj",
					"numinlets" : 1,
					"numoutlets" : 1,
					"outlettype" : [ "" ],
					"patching_rect" : [ 2010.0, 425.0, 20.0, 20.0 ],
					"text" : "t l"
				}

			}
, 			{
				"box" : 				{
					"fontname" : "Arial",
					"fontsize" : 12.0,
					"id" : "obj-26",
					"maxclass" : "newobj",
					"numinlets" : 1,
					"numoutlets" : 1,
					"outlettype" : [ "" ],
					"patching_rect" : [ 1750.0, 425.0, 20.0, 20.0 ],
					"text" : "t l"
				}

			}
, 			{
				"box" : 				{
					"fontname" : "Arial",
					"fontsize" : 12.0,
					"id" : "obj-22",
					"maxclass" : "newobj",
					"numinlets" : 1,
					"numoutlets" : 1,
					"outlettype" : [ "" ],
					"patching_rect" : [ 1490.0, 425.0, 20.0, 20.0 ],
					"text" : "t l"
				}

			}
, 			{
				"box" : 				{
					"fontname" : "Arial",
					"fontsize" : 12.0,
					"id" : "obj-11",
					"maxclass" : "newobj",
					"numinlets" : 1,
					"numoutlets" : 1,
					"outlettype" : [ "" ],
					"patching_rect" : [ 1230.0, 425.0, 20.0, 20.0 ],
					"text" : "t l"
				}

			}
, 			{
				"box" : 				{
					"fontname" : "Arial",
					"fontsize" : 12.0,
					"id" : "obj-78",
					"maxclass" : "newobj",
					"numinlets" : 1,
					"numoutlets" : 1,
					"outlettype" : [ "" ],
					"patching_rect" : [ 2135.0, 395.0, 81.0, 20.0 ],
					"text" : "prepend /two"
				}

			}
, 			{
				"box" : 				{
					"fontname" : "Arial",
					"fontsize" : 12.0,
					"id" : "obj-79",
					"maxclass" : "newobj",
					"numinlets" : 1,
					"numoutlets" : 1,
					"outlettype" : [ "" ],
					"patching_rect" : [ 2010.0, 395.0, 81.0, 20.0 ],
					"text" : "prepend /one"
				}

			}
, 			{
				"box" : 				{
					"fontname" : "Arial",
					"fontsize" : 12.0,
					"id" : "obj-76",
					"maxclass" : "newobj",
					"numinlets" : 1,
					"numoutlets" : 1,
					"outlettype" : [ "" ],
					"patching_rect" : [ 1875.0, 395.0, 81.0, 20.0 ],
					"text" : "prepend /two"
				}

			}
, 			{
				"box" : 				{
					"fontname" : "Arial",
					"fontsize" : 12.0,
					"id" : "obj-77",
					"maxclass" : "newobj",
					"numinlets" : 1,
					"numoutlets" : 1,
					"outlettype" : [ "" ],
					"patching_rect" : [ 1750.0, 395.0, 81.0, 20.0 ],
					"text" : "prepend /one"
				}

			}
, 			{
				"box" : 				{
					"fontname" : "Arial",
					"fontsize" : 12.0,
					"id" : "obj-74",
					"maxclass" : "newobj",
					"numinlets" : 1,
					"numoutlets" : 1,
					"outlettype" : [ "" ],
					"patching_rect" : [ 1615.0, 395.0, 81.0, 20.0 ],
					"text" : "prepend /two"
				}

			}
, 			{
				"box" : 				{
					"fontname" : "Arial",
					"fontsize" : 12.0,
					"id" : "obj-75",
					"maxclass" : "newobj",
					"numinlets" : 1,
					"numoutlets" : 1,
					"outlettype" : [ "" ],
					"patching_rect" : [ 1490.0, 395.0, 81.0, 20.0 ],
					"text" : "prepend /one"
				}

			}
, 			{
				"box" : 				{
					"fontname" : "Arial",
					"fontsize" : 12.0,
					"id" : "obj-64",
					"maxclass" : "newobj",
					"numinlets" : 1,
					"numoutlets" : 1,
					"outlettype" : [ "" ],
					"patching_rect" : [ 1355.0, 395.0, 81.0, 20.0 ],
					"text" : "prepend /two"
				}

			}
, 			{
				"box" : 				{
					"fontname" : "Arial",
					"fontsize" : 12.0,
					"id" : "obj-20",
					"maxclass" : "newobj",
					"numinlets" : 1,
					"numoutlets" : 1,
					"outlettype" : [ "" ],
					"patching_rect" : [ 1230.0, 395.0, 81.0, 20.0 ],
					"text" : "prepend /one"
				}

			}
, 			{
				"box" : 				{
					"args" : [ 8, "@rect", 132, 20 ],
					"id" : "obj-29",
					"maxclass" : "bpatcher",
					"name" : "j264.ui.sendmenu.maxpat",
					"numinlets" : 1,
					"numoutlets" : 1,
					"outlettype" : [ "" ],
					"patching_rect" : [ 2135.0, 370.0, 115.0, 20.0 ],
					"presentation" : 1,
					"presentation_rect" : [ 148.0, 155.0, 132.0, 20.0 ]
				}

			}
, 			{
				"box" : 				{
					"args" : [ 7, "@rect", 132, 20 ],
					"id" : "obj-51",
					"maxclass" : "bpatcher",
					"name" : "j264.ui.sendmenu.maxpat",
					"numinlets" : 1,
					"numoutlets" : 1,
					"outlettype" : [ "" ],
					"patching_rect" : [ 2010.0, 370.0, 115.0, 20.0 ],
					"presentation" : 1,
					"presentation_rect" : [ 148.0, 135.0, 132.0, 20.0 ]
				}

			}
, 			{
				"box" : 				{
					"args" : [ 6, "@rect", 132, 20 ],
					"id" : "obj-52",
					"maxclass" : "bpatcher",
					"name" : "j264.ui.sendmenu.maxpat",
					"numinlets" : 1,
					"numoutlets" : 1,
					"outlettype" : [ "" ],
					"patching_rect" : [ 1875.0, 370.0, 115.0, 20.0 ],
					"presentation" : 1,
					"presentation_rect" : [ 148.0, 115.0, 132.0, 20.0 ]
				}

			}
, 			{
				"box" : 				{
					"args" : [ 5, "@rect", 132, 20 ],
					"id" : "obj-59",
					"maxclass" : "bpatcher",
					"name" : "j264.ui.sendmenu.maxpat",
					"numinlets" : 1,
					"numoutlets" : 1,
					"outlettype" : [ "" ],
					"patching_rect" : [ 1750.0, 370.0, 115.0, 20.0 ],
					"presentation" : 1,
					"presentation_rect" : [ 148.0, 95.0, 132.0, 20.0 ]
				}

			}
, 			{
				"box" : 				{
					"args" : [  ],
					"id" : "obj-61",
					"maxclass" : "bpatcher",
					"name" : "j264.bp.paramsend.2x~.78.maxpat",
					"numinlets" : 9,
					"numoutlets" : 2,
					"outlettype" : [ "", "" ],
					"patching_rect" : [ 2010.0, 180.0, 240.0, 180.0 ],
					"presentation" : 1,
					"presentation_rect" : [ 0.0, 1570.0, 290.0, 180.0 ]
				}

			}
, 			{
				"box" : 				{
					"args" : [  ],
					"id" : "obj-72",
					"maxclass" : "bpatcher",
					"name" : "j264.bp.paramsend.2x~.56.maxpat",
					"numinlets" : 9,
					"numoutlets" : 2,
					"outlettype" : [ "", "" ],
					"patching_rect" : [ 1750.0, 180.0, 240.0, 180.0 ],
					"presentation" : 1,
					"presentation_rect" : [ 0.0, 1375.0, 290.0, 180.0 ]
				}

			}
, 			{
				"box" : 				{
					"fontname" : "Arial",
					"fontsize" : 12.0,
					"id" : "obj-35",
					"maxclass" : "message",
					"numinlets" : 2,
					"numoutlets" : 1,
					"outlettype" : [ "" ],
					"patching_rect" : [ 10.0, 95.0, 37.0, 18.0 ],
					"presentation" : 1,
					"presentation_rect" : [ 10.0, 20.0, 37.0, 18.0 ],
					"text" : "clear"
				}

			}
, 			{
				"box" : 				{
					"fontname" : "Arial",
					"fontsize" : 12.0,
					"id" : "obj-27",
					"maxclass" : "newobj",
					"numinlets" : 1,
					"numoutlets" : 3,
					"outlettype" : [ "", "", "" ],
					"patching_rect" : [ 10.0, 120.0, 297.0, 20.0 ],
					"text" : "jcom.message clear @type none @repetitions/allow 1"
				}

			}
, 			{
				"box" : 				{
					"args" : [ 4, "@rect", 132, 20 ],
					"id" : "obj-69",
					"maxclass" : "bpatcher",
					"name" : "j264.ui.sendmenu.maxpat",
					"numinlets" : 1,
					"numoutlets" : 1,
					"outlettype" : [ "" ],
					"patching_rect" : [ 1615.0, 370.0, 115.0, 20.0 ],
					"presentation" : 1,
					"presentation_rect" : [ 10.0, 155.0, 132.0, 20.0 ]
				}

			}
, 			{
				"box" : 				{
					"args" : [ 3, "@rect", 132, 20 ],
					"id" : "obj-70",
					"maxclass" : "bpatcher",
					"name" : "j264.ui.sendmenu.maxpat",
					"numinlets" : 1,
					"numoutlets" : 1,
					"outlettype" : [ "" ],
					"patching_rect" : [ 1490.0, 370.0, 115.0, 20.0 ],
					"presentation" : 1,
					"presentation_rect" : [ 10.0, 135.0, 132.0, 20.0 ]
				}

			}
, 			{
				"box" : 				{
					"args" : [ 2, "@rect", 132, 20 ],
					"id" : "obj-68",
					"maxclass" : "bpatcher",
					"name" : "j264.ui.sendmenu.maxpat",
					"numinlets" : 1,
					"numoutlets" : 1,
					"outlettype" : [ "" ],
					"patching_rect" : [ 1355.0, 370.0, 115.0, 20.0 ],
					"presentation" : 1,
					"presentation_rect" : [ 10.0, 115.0, 132.0, 20.0 ]
				}

			}
, 			{
				"box" : 				{
					"args" : [ 1, "@rect", 132, 20 ],
					"id" : "obj-67",
					"maxclass" : "bpatcher",
					"name" : "j264.ui.sendmenu.maxpat",
					"numinlets" : 1,
					"numoutlets" : 1,
					"outlettype" : [ "" ],
					"patching_rect" : [ 1230.0, 370.0, 115.0, 20.0 ],
					"presentation" : 1,
					"presentation_rect" : [ 10.0, 95.0, 132.0, 20.0 ]
				}

			}
, 			{
				"box" : 				{
					"args" : [  ],
					"id" : "obj-48",
					"maxclass" : "bpatcher",
					"name" : "j264.bp.paramsend.2x~.34.maxpat",
					"numinlets" : 9,
					"numoutlets" : 2,
					"outlettype" : [ "", "" ],
					"patching_rect" : [ 1490.0, 180.0, 240.0, 180.0 ],
					"presentation" : 1,
					"presentation_rect" : [ 0.0, 1180.0, 290.0, 175.0 ]
				}

			}
, 			{
				"box" : 				{
					"args" : [ "gain.2", 8, "@range/bounds", 0.0, 0.99 ],
					"id" : "obj-44",
					"maxclass" : "bpatcher",
					"name" : "j264.bp.paramwrapper.Nx.maxpat",
					"numinlets" : 1,
					"numoutlets" : 1,
					"outlettype" : [ "" ],
					"patching_rect" : [ 925.0, 180.0, 290.0, 175.0 ],
					"presentation" : 1,
					"presentation_rect" : [ 0.0, 790.0, 290.0, 175.0 ]
				}

			}
, 			{
				"box" : 				{
					"args" : [ "gain.1", 8, "@range/bounds", 0.0, 0.99 ],
					"id" : "obj-42",
					"maxclass" : "bpatcher",
					"name" : "j264.bp.paramwrapper.Nx.maxpat",
					"numinlets" : 1,
					"numoutlets" : 1,
					"outlettype" : [ "" ],
					"patching_rect" : [ 620.0, 180.0, 290.0, 175.0 ],
					"presentation" : 1,
					"presentation_rect" : [ 0.0, 595.0, 290.0, 175.0 ]
				}

			}
, 			{
				"box" : 				{
					"args" : [ "delay.2", 8, "@range/bounds", 0, 1 ],
					"id" : "obj-28",
					"maxclass" : "bpatcher",
					"name" : "j264.bp.paramwrapper.Nx.maxpat",
					"numinlets" : 1,
					"numoutlets" : 1,
					"outlettype" : [ "" ],
					"patching_rect" : [ 315.0, 180.0, 290.0, 175.0 ],
					"presentation" : 1,
					"presentation_rect" : [ 0.0, 400.0, 290.0, 175.0 ]
				}

			}
, 			{
				"box" : 				{
					"fontname" : "Arial",
					"fontsize" : 12.0,
					"id" : "obj-17",
					"maxclass" : "newobj",
					"numinlets" : 1,
					"numoutlets" : 2,
					"outlettype" : [ "", "" ],
					"patching_rect" : [ 105.0, 60.0, 69.0, 20.0 ],
					"save" : [ "#N", "thispatcher", ";", "#Q", "end", ";" ],
					"text" : "thispatcher"
				}

			}
, 			{
				"box" : 				{
					"args" : [  ],
					"id" : "obj-3",
					"maxclass" : "bpatcher",
					"name" : "j264.bp.paramsend.2x~.12.maxpat",
					"numinlets" : 9,
					"numoutlets" : 2,
					"outlettype" : [ "", "" ],
					"patching_rect" : [ 1230.0, 180.0, 240.0, 180.0 ],
					"presentation" : 1,
					"presentation_rect" : [ 0.0, 985.0, 290.0, 175.0 ]
				}

			}
, 			{
				"box" : 				{
					"comment" : "",
					"id" : "obj-1",
					"maxclass" : "inlet",
					"numinlets" : 0,
					"numoutlets" : 1,
					"outlettype" : [ "" ],
					"patching_rect" : [ 10.0, 10.0, 20.0, 20.0 ]
				}

			}
, 			{
				"box" : 				{
					"args" : [ "delay.1", 8, "@range/bounds", 0, 1 ],
					"id" : "obj-2",
					"maxclass" : "bpatcher",
					"name" : "j264.bp.paramwrapper.Nx.maxpat",
					"numinlets" : 1,
					"numoutlets" : 1,
					"outlettype" : [ "" ],
					"patching_rect" : [ 10.0, 180.0, 290.0, 175.0 ],
					"presentation" : 1,
					"presentation_rect" : [ 0.0, 205.0, 290.0, 175.0 ]
				}

			}
, 			{
				"box" : 				{
					"background" : 1,
					"bgcolor" : [ 0.666667, 0.666667, 0.666667, 0.0 ],
					"border" : 2,
					"bordercolor" : [ 0.6, 0.6, 0.6, 1.0 ],
					"id" : "obj-53",
					"maxclass" : "panel",
					"numinlets" : 1,
					"numoutlets" : 0,
					"patching_rect" : [ 35.0, 10.0, 20.0, 20.0 ],
					"presentation" : 1,
					"presentation_rect" : [ 0.0, 10.0, 290.0, 170.0 ]
				}

			}
 ],
		"lines" : [ 			{
				"patchline" : 				{
					"destination" : [ "obj-81", 0 ],
					"hidden" : 0,
					"midpoints" : [  ],
					"source" : [ "obj-1", 0 ]
				}

			}
, 			{
				"patchline" : 				{
					"destination" : [ "obj-3", 8 ],
					"hidden" : 0,
					"midpoints" : [ 1239.5, 450.0, 1224.0, 450.0, 1224.0, 175.0, 1460.5, 175.0 ],
					"source" : [ "obj-11", 0 ]
				}

			}
, 			{
				"patchline" : 				{
					"destination" : [ "obj-2", 0 ],
					"hidden" : 0,
					"midpoints" : [  ],
					"source" : [ "obj-12", 0 ]
				}

			}
, 			{
				"patchline" : 				{
					"destination" : [ "obj-28", 0 ],
					"hidden" : 0,
					"midpoints" : [  ],
					"source" : [ "obj-13", 0 ]
				}

			}
, 			{
				"patchline" : 				{
					"destination" : [ "obj-44", 0 ],
					"hidden" : 0,
					"midpoints" : [  ],
					"source" : [ "obj-14", 0 ]
				}

			}
, 			{
				"patchline" : 				{
					"destination" : [ "obj-42", 0 ],
					"hidden" : 0,
					"midpoints" : [  ],
					"source" : [ "obj-15", 0 ]
				}

			}
, 			{
				"patchline" : 				{
					"destination" : [ "obj-2", 0 ],
					"hidden" : 0,
					"midpoints" : [ 19.5, 425.0, 4.0, 425.0, 4.0, 175.0, 19.5, 175.0 ],
					"source" : [ "obj-16", 0 ]
				}

			}
, 			{
				"patchline" : 				{
					"destination" : [ "obj-28", 0 ],
					"hidden" : 0,
					"midpoints" : [ 324.5, 425.0, 310.0, 425.0, 310.0, 175.0, 324.5, 175.0 ],
					"source" : [ "obj-18", 0 ]
				}

			}
, 			{
				"patchline" : 				{
					"destination" : [ "obj-44", 0 ],
					"hidden" : 0,
					"midpoints" : [ 934.5, 425.0, 921.0, 425.0, 921.0, 175.0, 934.5, 175.0 ],
					"source" : [ "obj-19", 0 ]
				}

			}
, 			{
				"patchline" : 				{
					"destination" : [ "obj-16", 0 ],
					"hidden" : 0,
					"midpoints" : [  ],
					"source" : [ "obj-2", 0 ]
				}

			}
, 			{
				"patchline" : 				{
					"destination" : [ "obj-11", 0 ],
					"hidden" : 0,
					"midpoints" : [  ],
					"source" : [ "obj-20", 0 ]
				}

			}
, 			{
				"patchline" : 				{
					"destination" : [ "obj-42", 0 ],
					"hidden" : 0,
					"midpoints" : [ 629.5, 425.0, 615.0, 425.0, 615.0, 175.0, 629.5, 175.0 ],
					"source" : [ "obj-21", 0 ]
				}

			}
, 			{
				"patchline" : 				{
					"destination" : [ "obj-48", 8 ],
					"hidden" : 0,
					"midpoints" : [ 1499.5, 450.0, 1485.0, 450.0, 1485.0, 175.0, 1720.5, 175.0 ],
					"source" : [ "obj-22", 0 ]
				}

			}
, 			{
				"patchline" : 				{
					"destination" : [ "obj-3", 8 ],
					"hidden" : 0,
					"midpoints" : [  ],
					"source" : [ "obj-24", 0 ]
				}

			}
, 			{
				"patchline" : 				{
					"destination" : [ "obj-48", 8 ],
					"hidden" : 0,
					"midpoints" : [  ],
					"source" : [ "obj-25", 0 ]
				}

			}
, 			{
				"patchline" : 				{
					"destination" : [ "obj-72", 8 ],
					"hidden" : 0,
					"midpoints" : [ 1759.5, 450.0, 1745.0, 450.0, 1745.0, 175.0, 1980.5, 175.0 ],
					"source" : [ "obj-26", 0 ]
				}

			}
, 			{
				"patchline" : 				{
					"destination" : [ "obj-18", 0 ],
					"hidden" : 0,
					"midpoints" : [  ],
					"source" : [ "obj-28", 0 ]
				}

			}
, 			{
				"patchline" : 				{
					"destination" : [ "obj-78", 0 ],
					"hidden" : 0,
					"midpoints" : [  ],
					"source" : [ "obj-29", 0 ]
				}

			}
, 			{
				"patchline" : 				{
					"destination" : [ "obj-67", 0 ],
					"hidden" : 0,
					"midpoints" : [  ],
					"source" : [ "obj-3", 0 ]
				}

			}
, 			{
				"patchline" : 				{
					"destination" : [ "obj-68", 0 ],
					"hidden" : 0,
					"midpoints" : [ 1460.5, 365.0, 1364.5, 365.0 ],
					"source" : [ "obj-3", 1 ]
				}

			}
, 			{
				"patchline" : 				{
					"destination" : [ "obj-72", 8 ],
					"hidden" : 0,
					"midpoints" : [  ],
					"source" : [ "obj-30", 0 ]
				}

			}
, 			{
				"patchline" : 				{
					"destination" : [ "obj-61", 8 ],
					"hidden" : 0,
					"midpoints" : [  ],
					"source" : [ "obj-31", 0 ]
				}

			}
, 			{
				"patchline" : 				{
					"destination" : [ "obj-27", 0 ],
					"hidden" : 0,
					"midpoints" : [  ],
					"source" : [ "obj-35", 0 ]
				}

			}
, 			{
				"patchline" : 				{
					"destination" : [ "obj-21", 0 ],
					"hidden" : 0,
					"midpoints" : [  ],
					"source" : [ "obj-42", 0 ]
				}

			}
, 			{
				"patchline" : 				{
					"destination" : [ "obj-61", 8 ],
					"hidden" : 0,
					"midpoints" : [ 2019.5, 449.0, 2005.0, 449.0, 2005.0, 175.0, 2240.5, 175.0 ],
					"source" : [ "obj-43", 0 ]
				}

			}
, 			{
				"patchline" : 				{
					"destination" : [ "obj-19", 0 ],
					"hidden" : 0,
					"midpoints" : [  ],
					"source" : [ "obj-44", 0 ]
				}

			}
, 			{
				"patchline" : 				{
					"destination" : [ "obj-69", 0 ],
					"hidden" : 0,
					"midpoints" : [ 1720.5, 365.0, 1624.5, 365.0 ],
					"source" : [ "obj-48", 1 ]
				}

			}
, 			{
				"patchline" : 				{
					"destination" : [ "obj-70", 0 ],
					"hidden" : 0,
					"midpoints" : [  ],
					"source" : [ "obj-48", 0 ]
				}

			}
, 			{
				"patchline" : 				{
					"destination" : [ "obj-79", 0 ],
					"hidden" : 0,
					"midpoints" : [  ],
					"source" : [ "obj-51", 0 ]
				}

			}
, 			{
				"patchline" : 				{
					"destination" : [ "obj-76", 0 ],
					"hidden" : 0,
					"midpoints" : [  ],
					"source" : [ "obj-52", 0 ]
				}

			}
, 			{
				"patchline" : 				{
					"destination" : [ "obj-77", 0 ],
					"hidden" : 0,
					"midpoints" : [  ],
					"source" : [ "obj-59", 0 ]
				}

			}
, 			{
				"patchline" : 				{
					"destination" : [ "obj-29", 0 ],
					"hidden" : 0,
					"midpoints" : [ 2240.5, 364.0, 2144.5, 364.0 ],
					"source" : [ "obj-61", 1 ]
				}

			}
, 			{
				"patchline" : 				{
					"destination" : [ "obj-51", 0 ],
					"hidden" : 0,
					"midpoints" : [  ],
					"source" : [ "obj-61", 0 ]
				}

			}
, 			{
				"patchline" : 				{
					"destination" : [ "obj-11", 0 ],
					"hidden" : 0,
					"midpoints" : [ 1364.5, 420.0, 1239.5, 420.0 ],
					"source" : [ "obj-64", 0 ]
				}

			}
, 			{
				"patchline" : 				{
					"destination" : [ "obj-20", 0 ],
					"hidden" : 0,
					"midpoints" : [  ],
					"source" : [ "obj-67", 0 ]
				}

			}
, 			{
				"patchline" : 				{
					"destination" : [ "obj-64", 0 ],
					"hidden" : 0,
					"midpoints" : [  ],
					"source" : [ "obj-68", 0 ]
				}

			}
, 			{
				"patchline" : 				{
					"destination" : [ "obj-74", 0 ],
					"hidden" : 0,
					"midpoints" : [  ],
					"source" : [ "obj-69", 0 ]
				}

			}
, 			{
				"patchline" : 				{
					"destination" : [ "obj-75", 0 ],
					"hidden" : 0,
					"midpoints" : [  ],
					"source" : [ "obj-70", 0 ]
				}

			}
, 			{
				"patchline" : 				{
					"destination" : [ "obj-52", 0 ],
					"hidden" : 0,
					"midpoints" : [ 1980.5, 365.0, 1884.5, 365.0 ],
					"source" : [ "obj-72", 1 ]
				}

			}
, 			{
				"patchline" : 				{
					"destination" : [ "obj-59", 0 ],
					"hidden" : 0,
					"midpoints" : [  ],
					"source" : [ "obj-72", 0 ]
				}

			}
, 			{
				"patchline" : 				{
					"destination" : [ "obj-22", 0 ],
					"hidden" : 0,
					"midpoints" : [ 1624.5, 420.0, 1499.5, 420.0 ],
					"source" : [ "obj-74", 0 ]
				}

			}
, 			{
				"patchline" : 				{
					"destination" : [ "obj-22", 0 ],
					"hidden" : 0,
					"midpoints" : [  ],
					"source" : [ "obj-75", 0 ]
				}

			}
, 			{
				"patchline" : 				{
					"destination" : [ "obj-26", 0 ],
					"hidden" : 0,
					"midpoints" : [ 1884.5, 420.0, 1759.5, 420.0 ],
					"source" : [ "obj-76", 0 ]
				}

			}
, 			{
				"patchline" : 				{
					"destination" : [ "obj-26", 0 ],
					"hidden" : 0,
					"midpoints" : [  ],
					"source" : [ "obj-77", 0 ]
				}

			}
, 			{
				"patchline" : 				{
					"destination" : [ "obj-43", 0 ],
					"hidden" : 0,
					"midpoints" : [ 2144.5, 420.0, 2019.5, 420.0 ],
					"source" : [ "obj-78", 0 ]
				}

			}
, 			{
				"patchline" : 				{
					"destination" : [ "obj-43", 0 ],
					"hidden" : 0,
					"midpoints" : [  ],
					"source" : [ "obj-79", 0 ]
				}

			}
, 			{
				"patchline" : 				{
					"destination" : [ "obj-17", 0 ],
					"hidden" : 0,
					"midpoints" : [  ],
					"source" : [ "obj-81", 1 ]
				}

			}
, 			{
				"patchline" : 				{
					"destination" : [ "obj-23", 0 ],
					"hidden" : 0,
					"midpoints" : [  ],
					"source" : [ "obj-81", 0 ]
				}

			}
 ]
	}

}
